<svg width="2865" height="1872" viewBox="0 0 2865 1872" fill="none" xmlns="http://www.w3.org/2000/svg">
<path d="M2681.33 69.5298H1136.82C1077.76 69.5298 1029.88 117.408 1029.88 176.47V1332.62C1029.88 1391.68 1077.76 1439.56 1136.82 1439.56H2681.33C2740.39 1439.56 2788.27 1391.68 2788.27 1332.62V176.47C2788.27 117.408 2740.39 69.5298 2681.33 69.5298Z" fill="#D8E9F1"/>
<path d="M2788.28 894.53H2263.4L1886.34 675.1C1879.6 671.181 1874.01 665.563 1870.12 658.807C1866.24 652.051 1864.19 644.394 1864.19 636.6V444.42" stroke="white" stroke-width="10" stroke-miterlimit="10"/>
<path d="M1864.19 387.46V69.5303" stroke="white" stroke-width="10" stroke-miterlimit="10"/>
<path d="M1612.1 898.34V290.88" stroke="white" stroke-width="10" stroke-miterlimit="10"/>
<path d="M1029.88 623.5H1253.97C1266 623.5 1277.92 621.13 1289.03 616.526C1300.15 611.921 1310.25 605.173 1318.76 596.665C1327.26 588.157 1334.01 578.057 1338.62 566.941C1343.22 555.825 1345.59 543.912 1345.59 531.88V292.88" stroke="white" stroke-width="10" stroke-miterlimit="10"/>
<path d="M1345.58 350.92C1345.58 368.103 1352.41 384.583 1364.56 396.733C1376.71 408.884 1393.19 415.71 1410.37 415.71H1835.5" stroke="white" stroke-width="10" stroke-miterlimit="10"/>
<path d="M1892.5 415.71H2327.98C2346.31 415.708 2364.01 409.012 2377.75 396.88L2495.44 292.88L2729.6 85.71" stroke="white" stroke-width="10" stroke-miterlimit="10" stroke-linecap="round"/>
<path d="M1892.5 415.71V415.94C1892.5 423.463 1889.53 430.682 1884.23 436.018C1878.92 441.355 1871.72 444.375 1864.2 444.42H1864.02C1860.28 444.427 1856.57 443.695 1853.11 442.266C1849.65 440.838 1846.5 438.741 1843.85 436.096C1841.2 433.45 1839.1 430.308 1837.67 426.85C1836.24 423.391 1835.5 419.684 1835.5 415.94V415.71C1835.56 408.199 1838.58 401.015 1843.92 395.724C1849.25 390.434 1856.46 387.467 1863.97 387.47H1864.15C1871.64 387.499 1878.82 390.48 1884.13 395.767C1889.43 401.053 1892.44 408.219 1892.5 415.71Z" stroke="white" stroke-width="10" stroke-miterlimit="10"/>
<path d="M2788.28 292.91H2495.44" stroke="white" stroke-width="10" stroke-miterlimit="10"/>
<path d="M2788.28 731.63H2263.4" stroke="white" stroke-width="10" stroke-miterlimit="10"/>
<path d="M2263.4 69.5303V1049.39C2263.4 1061.93 2258.41 1073.96 2249.54 1082.83C2240.67 1091.7 2228.64 1096.68 2216.1 1096.68H1029.88" stroke="white" stroke-width="10" stroke-miterlimit="10"/>
<path d="M2436.45 1444.05L2101.65 1096.68" stroke="white" stroke-width="10" stroke-miterlimit="10"/>
<path d="M1272.97 894.45L1151.75 623.5" stroke="white" stroke-width="10" stroke-miterlimit="10"/>
<path d="M1029.88 292.91H1864.01" stroke="white" stroke-width="10" stroke-miterlimit="10"/>
<path d="M2259.59 67.29L1893.94 413.46" stroke="white" stroke-width="5" stroke-miterlimit="10"/>
<path d="M2263.4 101.49L1933.88 413.46" stroke="white" stroke-width="5" stroke-miterlimit="10"/>
<path d="M2263.4 139.3L1973.81 413.46" stroke="white" stroke-width="5" stroke-miterlimit="10"/>
<path d="M2263.4 177.1L2013.74 413.46" stroke="white" stroke-width="5" stroke-miterlimit="10"/>
<path d="M2263.4 252.71L2093.6 413.46" stroke="white" stroke-width="5" stroke-miterlimit="10"/>
<path d="M2263.4 214.91L2053.67 413.46" stroke="white" stroke-width="5" stroke-miterlimit="10"/>
<path d="M2263.4 290.52L2133.53 413.46" stroke="white" stroke-width="5" stroke-miterlimit="10"/>
<path d="M2263.4 328.32L2173.47 413.46" stroke="white" stroke-width="5" stroke-miterlimit="10"/>
<path d="M2263.4 366.13L2213.4 413.46" stroke="white" stroke-width="5" stroke-miterlimit="10"/>
<path d="M1940.14 67.29L1864.19 139.19" stroke="white" stroke-width="5" stroke-miterlimit="10"/>
<path d="M1900.21 67.29L1864.19 101.39" stroke="white" stroke-width="5" stroke-miterlimit="10"/>
<path d="M1980.07 67.29L1864.19 177" stroke="white" stroke-width="5" stroke-miterlimit="10"/>
<path d="M2020 67.29L1864.01 214.97" stroke="white" stroke-width="5" stroke-miterlimit="10"/>
<path d="M2099.87 67.29L1864.01 290.58" stroke="white" stroke-width="5" stroke-miterlimit="10"/>
<path d="M2059.94 67.29L1864.01 252.77" stroke="white" stroke-width="5" stroke-miterlimit="10"/>
<path d="M2139.8 67.29L1864.19 328.21" stroke="white" stroke-width="5" stroke-miterlimit="10"/>
<path d="M2179.73 67.29L1864.19 366.02" stroke="white" stroke-width="5" stroke-miterlimit="10"/>
<path d="M2219.66 67.29L1877.75 390.99" stroke="white" stroke-width="5" stroke-miterlimit="10"/>
<path d="M2112.14 1097.28L1746.49 1443.45" stroke="white" stroke-width="5" stroke-miterlimit="10"/>
<path d="M2126.01 1121.95L1786.42 1443.45" stroke="white" stroke-width="5" stroke-miterlimit="10"/>
<path d="M2145.06 1141.72L1826.35 1443.45" stroke="white" stroke-width="5" stroke-miterlimit="10"/>
<path d="M2164.11 1161.49L1866.28 1443.45" stroke="white" stroke-width="5" stroke-miterlimit="10"/>
<path d="M2202.21 1201.02L1946.15 1443.45" stroke="white" stroke-width="5" stroke-miterlimit="10"/>
<path d="M2183.16 1181.26L1906.21 1443.45" stroke="white" stroke-width="5" stroke-miterlimit="10"/>
<path d="M2221.27 1220.79L1986.08 1443.45" stroke="white" stroke-width="5" stroke-miterlimit="10"/>
<path d="M2240.32 1240.56L2026.01 1443.45" stroke="white" stroke-width="5" stroke-miterlimit="10"/>
<path d="M2259.37 1260.33L2065.94 1443.45" stroke="white" stroke-width="5" stroke-miterlimit="10"/>
<path d="M2277.26 1278.88L2103.43 1443.45" stroke="white" stroke-width="5" stroke-miterlimit="10"/>
<path d="M2296.31 1298.65L2143.36 1443.45" stroke="white" stroke-width="5" stroke-miterlimit="10"/>
<path d="M2315.27 1318.32L2183.1 1443.45" stroke="white" stroke-width="5" stroke-miterlimit="10"/>
<path d="M2334.32 1338.09L2223.03 1443.45" stroke="white" stroke-width="5" stroke-miterlimit="10"/>
<path d="M2353.28 1357.75L2262.76 1443.45" stroke="white" stroke-width="5" stroke-miterlimit="10"/>
<path d="M2372.33 1377.52L2302.69 1443.45" stroke="white" stroke-width="5" stroke-miterlimit="10"/>
<path d="M2391.29 1397.19L2342.43 1443.45" stroke="white" stroke-width="5" stroke-miterlimit="10"/>
<path d="M2410.34 1416.96L2382.36 1443.45" stroke="white" stroke-width="5" stroke-miterlimit="10"/>
<path d="M1792.68 1097.28L1716.74 1169.18" stroke="white" stroke-width="5" stroke-miterlimit="10"/>
<path d="M1752.75 1097.28L1716.74 1131.38" stroke="white" stroke-width="5" stroke-miterlimit="10"/>
<path d="M1832.62 1097.28L1716.74 1206.99" stroke="white" stroke-width="5" stroke-miterlimit="10"/>
<path d="M1872.55 1097.28L1716.56 1244.96" stroke="white" stroke-width="5" stroke-miterlimit="10"/>
<path d="M1952.41 1097.28L1716.56 1320.57" stroke="white" stroke-width="5" stroke-miterlimit="10"/>
<path d="M1912.48 1097.28L1716.56 1282.77" stroke="white" stroke-width="5" stroke-miterlimit="10"/>
<path d="M1992.34 1097.28L1716.74 1358.2" stroke="white" stroke-width="5" stroke-miterlimit="10"/>
<path d="M2032.27 1097.28L1716.74 1396.01" stroke="white" stroke-width="5" stroke-miterlimit="10"/>
<path d="M2072.21 1097.28L1716.74 1433.81" stroke="white" stroke-width="5" stroke-miterlimit="10"/>
<path d="M1718.67 1439.56L1716.5 950.19C1716.28 935.088 1710.13 920.678 1699.38 910.075C1688.62 899.472 1674.12 893.529 1659.02 893.53H1028.96" stroke="white" stroke-width="10" stroke-miterlimit="10"/>
<path d="M1099.34 387.63C1102.23 387.63 1104.57 385.288 1104.57 382.4C1104.57 379.511 1102.23 377.17 1099.34 377.17C1096.45 377.17 1094.11 379.511 1094.11 382.4C1094.11 385.288 1096.45 387.63 1099.34 387.63Z" fill="#98C8DB"/>
<path d="M1132.3 387.63C1135.19 387.63 1137.53 385.288 1137.53 382.4C1137.53 379.511 1135.19 377.17 1132.3 377.17C1129.41 377.17 1127.07 379.511 1127.07 382.4C1127.07 385.288 1129.41 387.63 1132.3 387.63Z" fill="#98C8DB"/>
<path d="M1165.26 387.63C1168.15 387.63 1170.49 385.288 1170.49 382.4C1170.49 379.511 1168.15 377.17 1165.26 377.17C1162.37 377.17 1160.03 379.511 1160.03 382.4C1160.03 385.288 1162.37 387.63 1165.26 387.63Z" fill="#98C8DB"/>
<path d="M1198.21 387.63C1201.1 387.63 1203.44 385.288 1203.44 382.4C1203.44 379.511 1201.1 377.17 1198.21 377.17C1195.32 377.17 1192.98 379.511 1192.98 382.4C1192.98 385.288 1195.32 387.63 1198.21 387.63Z" fill="#98C8DB"/>
<path d="M1231.17 387.63C1234.06 387.63 1236.4 385.288 1236.4 382.4C1236.4 379.511 1234.06 377.17 1231.17 377.17C1228.28 377.17 1225.94 379.511 1225.94 382.4C1225.94 385.288 1228.28 387.63 1231.17 387.63Z" fill="#98C8DB"/>
<path d="M1264.12 387.63C1267.01 387.63 1269.35 385.288 1269.35 382.4C1269.35 379.511 1267.01 377.17 1264.12 377.17C1261.23 377.17 1258.89 379.511 1258.89 382.4C1258.89 385.288 1261.23 387.63 1264.12 387.63Z" fill="#98C8DB"/>
<path d="M1066.39 387.63C1069.28 387.63 1071.62 385.288 1071.62 382.4C1071.62 379.511 1069.28 377.17 1066.39 377.17C1063.5 377.17 1061.16 379.511 1061.16 382.4C1061.16 385.288 1063.5 387.63 1066.39 387.63Z" fill="#98C8DB"/>
<path d="M1082.87 404.8C1085.76 404.8 1088.1 402.458 1088.1 399.57C1088.1 396.681 1085.76 394.34 1082.87 394.34C1079.98 394.34 1077.64 396.681 1077.64 399.57C1077.64 402.458 1079.98 404.8 1082.87 404.8Z" fill="#98C8DB"/>
<path d="M1115.82 404.8C1118.71 404.8 1121.05 402.458 1121.05 399.57C1121.05 396.681 1118.71 394.34 1115.82 394.34C1112.93 394.34 1110.59 396.681 1110.59 399.57C1110.59 402.458 1112.93 404.8 1115.82 404.8Z" fill="#98C8DB"/>
<path d="M1148.78 404.8C1151.67 404.8 1154.01 402.458 1154.01 399.57C1154.01 396.681 1151.67 394.34 1148.78 394.34C1145.89 394.34 1143.55 396.681 1143.55 399.57C1143.55 402.458 1145.89 404.8 1148.78 404.8Z" fill="#98C8DB"/>
<path d="M1181.73 404.8C1184.62 404.8 1186.96 402.458 1186.96 399.57C1186.96 396.681 1184.62 394.34 1181.73 394.34C1178.84 394.34 1176.5 396.681 1176.5 399.57C1176.5 402.458 1178.84 404.8 1181.73 404.8Z" fill="#98C8DB"/>
<path d="M1214.69 404.8C1217.58 404.8 1219.92 402.458 1219.92 399.57C1219.92 396.681 1217.58 394.34 1214.69 394.34C1211.8 394.34 1209.46 396.681 1209.46 399.57C1209.46 402.458 1211.8 404.8 1214.69 404.8Z" fill="#98C8DB"/>
<path d="M1247.65 404.8C1250.54 404.8 1252.88 402.458 1252.88 399.57C1252.88 396.681 1250.54 394.34 1247.65 394.34C1244.76 394.34 1242.42 396.681 1242.42 399.57C1242.42 402.458 1244.76 404.8 1247.65 404.8Z" fill="#98C8DB"/>
<path d="M1280.6 404.8C1283.49 404.8 1285.83 402.458 1285.83 399.57C1285.83 396.681 1283.49 394.34 1280.6 394.34C1277.71 394.34 1275.37 396.681 1275.37 399.57C1275.37 402.458 1277.71 404.8 1280.6 404.8Z" fill="#98C8DB"/>
<path d="M1049.91 404.8C1052.8 404.8 1055.14 402.458 1055.14 399.57C1055.14 396.681 1052.8 394.34 1049.91 394.34C1047.02 394.34 1044.68 396.681 1044.68 399.57C1044.68 402.458 1047.02 404.8 1049.91 404.8Z" fill="#98C8DB"/>
<path d="M1099.34 421.97C1102.23 421.97 1104.57 419.629 1104.57 416.74C1104.57 413.852 1102.23 411.51 1099.34 411.51C1096.45 411.51 1094.11 413.852 1094.11 416.74C1094.11 419.629 1096.45 421.97 1099.34 421.97Z" fill="#98C8DB"/>
<path d="M1132.3 421.97C1135.19 421.97 1137.53 419.629 1137.53 416.74C1137.53 413.852 1135.19 411.51 1132.3 411.51C1129.41 411.51 1127.07 413.852 1127.07 416.74C1127.07 419.629 1129.41 421.97 1132.3 421.97Z" fill="#98C8DB"/>
<path d="M1165.26 421.97C1168.15 421.97 1170.49 419.629 1170.49 416.74C1170.49 413.852 1168.15 411.51 1165.26 411.51C1162.37 411.51 1160.03 413.852 1160.03 416.74C1160.03 419.629 1162.37 421.97 1165.26 421.97Z" fill="#98C8DB"/>
<path d="M1198.21 421.97C1201.1 421.97 1203.44 419.629 1203.44 416.74C1203.44 413.852 1201.1 411.51 1198.21 411.51C1195.32 411.51 1192.98 413.852 1192.98 416.74C1192.98 419.629 1195.32 421.97 1198.21 421.97Z" fill="#98C8DB"/>
<path d="M1231.17 421.97C1234.06 421.97 1236.4 419.629 1236.4 416.74C1236.4 413.852 1234.06 411.51 1231.17 411.51C1228.28 411.51 1225.94 413.852 1225.94 416.74C1225.94 419.629 1228.28 421.97 1231.17 421.97Z" fill="#98C8DB"/>
<path d="M1264.12 421.97C1267.01 421.97 1269.35 419.629 1269.35 416.74C1269.35 413.852 1267.01 411.51 1264.12 411.51C1261.23 411.51 1258.89 413.852 1258.89 416.74C1258.89 419.629 1261.23 421.97 1264.12 421.97Z" fill="#98C8DB"/>
<path d="M1297.08 421.97C1299.97 421.97 1302.31 419.629 1302.31 416.74C1302.31 413.852 1299.97 411.51 1297.08 411.51C1294.19 411.51 1291.85 413.852 1291.85 416.74C1291.85 419.629 1294.19 421.97 1297.08 421.97Z" fill="#98C8DB"/>
<path d="M1297.08 387.63C1299.97 387.63 1302.31 385.288 1302.31 382.4C1302.31 379.511 1299.97 377.17 1297.08 377.17C1294.19 377.17 1291.85 379.511 1291.85 382.4C1291.85 385.288 1294.19 387.63 1297.08 387.63Z" fill="#98C8DB"/>
<path d="M1066.39 421.97C1069.28 421.97 1071.62 419.629 1071.62 416.74C1071.62 413.852 1069.28 411.51 1066.39 411.51C1063.5 411.51 1061.16 413.852 1061.16 416.74C1061.16 419.629 1063.5 421.97 1066.39 421.97Z" fill="#98C8DB"/>
<path d="M1082.87 439.14C1085.76 439.14 1088.1 436.799 1088.1 433.91C1088.1 431.022 1085.76 428.68 1082.87 428.68C1079.98 428.68 1077.64 431.022 1077.64 433.91C1077.64 436.799 1079.98 439.14 1082.87 439.14Z" fill="#98C8DB"/>
<path d="M1115.82 439.14C1118.71 439.14 1121.05 436.799 1121.05 433.91C1121.05 431.022 1118.71 428.68 1115.82 428.68C1112.93 428.68 1110.59 431.022 1110.59 433.91C1110.59 436.799 1112.93 439.14 1115.82 439.14Z" fill="#98C8DB"/>
<path d="M1148.78 439.14C1151.67 439.14 1154.01 436.799 1154.01 433.91C1154.01 431.022 1151.67 428.68 1148.78 428.68C1145.89 428.68 1143.55 431.022 1143.55 433.91C1143.55 436.799 1145.89 439.14 1148.78 439.14Z" fill="#98C8DB"/>
<path d="M1181.73 439.14C1184.62 439.14 1186.96 436.799 1186.96 433.91C1186.96 431.022 1184.62 428.68 1181.73 428.68C1178.84 428.68 1176.5 431.022 1176.5 433.91C1176.5 436.799 1178.84 439.14 1181.73 439.14Z" fill="#98C8DB"/>
<path d="M1214.69 439.14C1217.58 439.14 1219.92 436.799 1219.92 433.91C1219.92 431.022 1217.58 428.68 1214.69 428.68C1211.8 428.68 1209.46 431.022 1209.46 433.91C1209.46 436.799 1211.8 439.14 1214.69 439.14Z" fill="#98C8DB"/>
<path d="M1247.65 439.14C1250.54 439.14 1252.88 436.799 1252.88 433.91C1252.88 431.022 1250.54 428.68 1247.65 428.68C1244.76 428.68 1242.42 431.022 1242.42 433.91C1242.42 436.799 1244.76 439.14 1247.65 439.14Z" fill="#98C8DB"/>
<path d="M1280.6 439.14C1283.49 439.14 1285.83 436.799 1285.83 433.91C1285.83 431.022 1283.49 428.68 1280.6 428.68C1277.71 428.68 1275.37 431.022 1275.37 433.91C1275.37 436.799 1277.71 439.14 1280.6 439.14Z" fill="#98C8DB"/>
<path d="M1049.91 439.14C1052.8 439.14 1055.14 436.799 1055.14 433.91C1055.14 431.022 1052.8 428.68 1049.91 428.68C1047.02 428.68 1044.68 431.022 1044.68 433.91C1044.68 436.799 1047.02 439.14 1049.91 439.14Z" fill="#98C8DB"/>
<path d="M1099.34 456.31C1102.23 456.31 1104.57 453.969 1104.57 451.08C1104.57 448.192 1102.23 445.85 1099.34 445.85C1096.45 445.85 1094.11 448.192 1094.11 451.08C1094.11 453.969 1096.45 456.31 1099.34 456.31Z" fill="#98C8DB"/>
<path d="M1132.3 456.31C1135.19 456.31 1137.53 453.969 1137.53 451.08C1137.53 448.192 1135.19 445.85 1132.3 445.85C1129.41 445.85 1127.07 448.192 1127.07 451.08C1127.07 453.969 1129.41 456.31 1132.3 456.31Z" fill="#98C8DB"/>
<path d="M1165.26 456.31C1168.15 456.31 1170.49 453.969 1170.49 451.08C1170.49 448.192 1168.15 445.85 1165.26 445.85C1162.37 445.85 1160.03 448.192 1160.03 451.08C1160.03 453.969 1162.37 456.31 1165.26 456.31Z" fill="#98C8DB"/>
<path d="M1198.21 456.31C1201.1 456.31 1203.44 453.969 1203.44 451.08C1203.44 448.192 1201.1 445.85 1198.21 445.85C1195.32 445.85 1192.98 448.192 1192.98 451.08C1192.98 453.969 1195.32 456.31 1198.21 456.31Z" fill="#98C8DB"/>
<path d="M1231.17 456.31C1234.06 456.31 1236.4 453.969 1236.4 451.08C1236.4 448.192 1234.06 445.85 1231.17 445.85C1228.28 445.85 1225.94 448.192 1225.94 451.08C1225.94 453.969 1228.28 456.31 1231.17 456.31Z" fill="#98C8DB"/>
<path d="M1264.12 456.31C1267.01 456.31 1269.35 453.969 1269.35 451.08C1269.35 448.192 1267.01 445.85 1264.12 445.85C1261.23 445.85 1258.89 448.192 1258.89 451.08C1258.89 453.969 1261.23 456.31 1264.12 456.31Z" fill="#98C8DB"/>
<path d="M1297.08 456.31C1299.97 456.31 1302.31 453.969 1302.31 451.08C1302.31 448.192 1299.97 445.85 1297.08 445.85C1294.19 445.85 1291.85 448.192 1291.85 451.08C1291.85 453.969 1294.19 456.31 1297.08 456.31Z" fill="#98C8DB"/>
<path d="M1066.39 456.31C1069.28 456.31 1071.62 453.969 1071.62 451.08C1071.62 448.192 1069.28 445.85 1066.39 445.85C1063.5 445.85 1061.16 448.192 1061.16 451.08C1061.16 453.969 1063.5 456.31 1066.39 456.31Z" fill="#98C8DB"/>
<path d="M1082.87 473.48C1085.76 473.48 1088.1 471.138 1088.1 468.25C1088.1 465.362 1085.76 463.02 1082.87 463.02C1079.98 463.02 1077.64 465.362 1077.64 468.25C1077.64 471.138 1079.98 473.48 1082.87 473.48Z" fill="#98C8DB"/>
<path d="M1115.82 473.48C1118.71 473.48 1121.05 471.138 1121.05 468.25C1121.05 465.362 1118.71 463.02 1115.82 463.02C1112.93 463.02 1110.59 465.362 1110.59 468.25C1110.59 471.138 1112.93 473.48 1115.82 473.48Z" fill="#98C8DB"/>
<path d="M1148.78 473.48C1151.67 473.48 1154.01 471.138 1154.01 468.25C1154.01 465.362 1151.67 463.02 1148.78 463.02C1145.89 463.02 1143.55 465.362 1143.55 468.25C1143.55 471.138 1145.89 473.48 1148.78 473.48Z" fill="#98C8DB"/>
<path d="M1181.73 473.48C1184.62 473.48 1186.96 471.138 1186.96 468.25C1186.96 465.362 1184.62 463.02 1181.73 463.02C1178.84 463.02 1176.5 465.362 1176.5 468.25C1176.5 471.138 1178.84 473.48 1181.73 473.48Z" fill="#98C8DB"/>
<path d="M1214.69 473.48C1217.58 473.48 1219.92 471.138 1219.92 468.25C1219.92 465.362 1217.58 463.02 1214.69 463.02C1211.8 463.02 1209.46 465.362 1209.46 468.25C1209.46 471.138 1211.8 473.48 1214.69 473.48Z" fill="#98C8DB"/>
<path d="M1247.65 473.48C1250.54 473.48 1252.88 471.138 1252.88 468.25C1252.88 465.362 1250.54 463.02 1247.65 463.02C1244.76 463.02 1242.42 465.362 1242.42 468.25C1242.42 471.138 1244.76 473.48 1247.65 473.48Z" fill="#98C8DB"/>
<path d="M1280.6 473.48C1283.49 473.48 1285.83 471.138 1285.83 468.25C1285.83 465.362 1283.49 463.02 1280.6 463.02C1277.71 463.02 1275.37 465.362 1275.37 468.25C1275.37 471.138 1277.71 473.48 1280.6 473.48Z" fill="#98C8DB"/>
<path d="M1049.91 473.48C1052.8 473.48 1055.14 471.138 1055.14 468.25C1055.14 465.362 1052.8 463.02 1049.91 463.02C1047.02 463.02 1044.68 465.362 1044.68 468.25C1044.68 471.138 1047.02 473.48 1049.91 473.48Z" fill="#98C8DB"/>
<path d="M1099.34 490.65C1102.23 490.65 1104.57 488.308 1104.57 485.42C1104.57 482.532 1102.23 480.19 1099.34 480.19C1096.45 480.19 1094.11 482.532 1094.11 485.42C1094.11 488.308 1096.45 490.65 1099.34 490.65Z" fill="#98C8DB"/>
<path d="M1132.3 490.65C1135.19 490.65 1137.53 488.308 1137.53 485.42C1137.53 482.532 1135.19 480.19 1132.3 480.19C1129.41 480.19 1127.07 482.532 1127.07 485.42C1127.07 488.308 1129.41 490.65 1132.3 490.65Z" fill="#98C8DB"/>
<path d="M1165.26 490.65C1168.15 490.65 1170.49 488.308 1170.49 485.42C1170.49 482.532 1168.15 480.19 1165.26 480.19C1162.37 480.19 1160.03 482.532 1160.03 485.42C1160.03 488.308 1162.37 490.65 1165.26 490.65Z" fill="#98C8DB"/>
<path d="M1198.21 490.65C1201.1 490.65 1203.44 488.308 1203.44 485.42C1203.44 482.532 1201.1 480.19 1198.21 480.19C1195.32 480.19 1192.98 482.532 1192.98 485.42C1192.98 488.308 1195.32 490.65 1198.21 490.65Z" fill="#98C8DB"/>
<path d="M1231.17 490.65C1234.06 490.65 1236.4 488.308 1236.4 485.42C1236.4 482.532 1234.06 480.19 1231.17 480.19C1228.28 480.19 1225.94 482.532 1225.94 485.42C1225.94 488.308 1228.28 490.65 1231.17 490.65Z" fill="#98C8DB"/>
<path d="M1264.12 490.65C1267.01 490.65 1269.35 488.308 1269.35 485.42C1269.35 482.532 1267.01 480.19 1264.12 480.19C1261.23 480.19 1258.89 482.532 1258.89 485.42C1258.89 488.308 1261.23 490.65 1264.12 490.65Z" fill="#98C8DB"/>
<path d="M1297.08 490.65C1299.97 490.65 1302.31 488.308 1302.31 485.42C1302.31 482.532 1299.97 480.19 1297.08 480.19C1294.19 480.19 1291.85 482.532 1291.85 485.42C1291.85 488.308 1294.19 490.65 1297.08 490.65Z" fill="#98C8DB"/>
<path d="M1066.39 490.65C1069.28 490.65 1071.62 488.308 1071.62 485.42C1071.62 482.532 1069.28 480.19 1066.39 480.19C1063.5 480.19 1061.16 482.532 1061.16 485.42C1061.16 488.308 1063.5 490.65 1066.39 490.65Z" fill="#98C8DB"/>
<path d="M1082.87 507.82C1085.76 507.82 1088.1 505.478 1088.1 502.59C1088.1 499.701 1085.76 497.36 1082.87 497.36C1079.98 497.36 1077.64 499.701 1077.64 502.59C1077.64 505.478 1079.98 507.82 1082.87 507.82Z" fill="#98C8DB"/>
<path d="M1115.82 507.82C1118.71 507.82 1121.05 505.478 1121.05 502.59C1121.05 499.701 1118.71 497.36 1115.82 497.36C1112.93 497.36 1110.59 499.701 1110.59 502.59C1110.59 505.478 1112.93 507.82 1115.82 507.82Z" fill="#98C8DB"/>
<path d="M1148.78 507.82C1151.67 507.82 1154.01 505.478 1154.01 502.59C1154.01 499.701 1151.67 497.36 1148.78 497.36C1145.89 497.36 1143.55 499.701 1143.55 502.59C1143.55 505.478 1145.89 507.82 1148.78 507.82Z" fill="#98C8DB"/>
<path d="M1181.73 507.82C1184.62 507.82 1186.96 505.478 1186.96 502.59C1186.96 499.701 1184.62 497.36 1181.73 497.36C1178.84 497.36 1176.5 499.701 1176.5 502.59C1176.5 505.478 1178.84 507.82 1181.73 507.82Z" fill="#98C8DB"/>
<path d="M1214.69 507.82C1217.58 507.82 1219.92 505.478 1219.92 502.59C1219.92 499.701 1217.58 497.36 1214.69 497.36C1211.8 497.36 1209.46 499.701 1209.46 502.59C1209.46 505.478 1211.8 507.82 1214.69 507.82Z" fill="#98C8DB"/>
<path d="M1247.65 507.82C1250.54 507.82 1252.88 505.478 1252.88 502.59C1252.88 499.701 1250.54 497.36 1247.65 497.36C1244.76 497.36 1242.42 499.701 1242.42 502.59C1242.42 505.478 1244.76 507.82 1247.65 507.82Z" fill="#98C8DB"/>
<path d="M1280.6 507.82C1283.49 507.82 1285.83 505.478 1285.83 502.59C1285.83 499.701 1283.49 497.36 1280.6 497.36C1277.71 497.36 1275.37 499.701 1275.37 502.59C1275.37 505.478 1277.71 507.82 1280.6 507.82Z" fill="#98C8DB"/>
<path d="M1049.91 507.82C1052.8 507.82 1055.14 505.478 1055.14 502.59C1055.14 499.701 1052.8 497.36 1049.91 497.36C1047.02 497.36 1044.68 499.701 1044.68 502.59C1044.68 505.478 1047.02 507.82 1049.91 507.82Z" fill="#98C8DB"/>
<path d="M1099.34 525C1102.23 525 1104.57 522.659 1104.57 519.77C1104.57 516.882 1102.23 514.54 1099.34 514.54C1096.45 514.54 1094.11 516.882 1094.11 519.77C1094.11 522.659 1096.45 525 1099.34 525Z" fill="#98C8DB"/>
<path d="M1132.3 525C1135.19 525 1137.53 522.659 1137.53 519.77C1137.53 516.882 1135.19 514.54 1132.3 514.54C1129.41 514.54 1127.07 516.882 1127.07 519.77C1127.07 522.659 1129.41 525 1132.3 525Z" fill="#98C8DB"/>
<path d="M1165.26 525C1168.15 525 1170.49 522.659 1170.49 519.77C1170.49 516.882 1168.15 514.54 1165.26 514.54C1162.37 514.54 1160.03 516.882 1160.03 519.77C1160.03 522.659 1162.37 525 1165.26 525Z" fill="#98C8DB"/>
<path d="M1198.21 525C1201.1 525 1203.44 522.659 1203.44 519.77C1203.44 516.882 1201.1 514.54 1198.21 514.54C1195.32 514.54 1192.98 516.882 1192.98 519.77C1192.98 522.659 1195.32 525 1198.21 525Z" fill="#98C8DB"/>
<path d="M1231.17 525C1234.06 525 1236.4 522.659 1236.4 519.77C1236.4 516.882 1234.06 514.54 1231.17 514.54C1228.28 514.54 1225.94 516.882 1225.94 519.77C1225.94 522.659 1228.28 525 1231.17 525Z" fill="#98C8DB"/>
<path d="M1264.12 525C1267.01 525 1269.35 522.659 1269.35 519.77C1269.35 516.882 1267.01 514.54 1264.12 514.54C1261.23 514.54 1258.89 516.882 1258.89 519.77C1258.89 522.659 1261.23 525 1264.12 525Z" fill="#98C8DB"/>
<path d="M1297.08 525C1299.97 525 1302.31 522.659 1302.31 519.77C1302.31 516.882 1299.97 514.54 1297.08 514.54C1294.19 514.54 1291.85 516.882 1291.85 519.77C1291.85 522.659 1294.19 525 1297.08 525Z" fill="#98C8DB"/>
<path d="M1066.39 525C1069.28 525 1071.62 522.659 1071.62 519.77C1071.62 516.882 1069.28 514.54 1066.39 514.54C1063.5 514.54 1061.16 516.882 1061.16 519.77C1061.16 522.659 1063.5 525 1066.39 525Z" fill="#98C8DB"/>
<path d="M1082.87 542.17C1085.76 542.17 1088.1 539.828 1088.1 536.94C1088.1 534.051 1085.76 531.71 1082.87 531.71C1079.98 531.71 1077.64 534.051 1077.64 536.94C1077.64 539.828 1079.98 542.17 1082.87 542.17Z" fill="#98C8DB"/>
<path d="M1115.82 542.17C1118.71 542.17 1121.05 539.828 1121.05 536.94C1121.05 534.051 1118.71 531.71 1115.82 531.71C1112.93 531.71 1110.59 534.051 1110.59 536.94C1110.59 539.828 1112.93 542.17 1115.82 542.17Z" fill="#98C8DB"/>
<path d="M1148.78 542.17C1151.67 542.17 1154.01 539.828 1154.01 536.94C1154.01 534.051 1151.67 531.71 1148.78 531.71C1145.89 531.71 1143.55 534.051 1143.55 536.94C1143.55 539.828 1145.89 542.17 1148.78 542.17Z" fill="#98C8DB"/>
<path d="M1181.73 542.17C1184.62 542.17 1186.96 539.828 1186.96 536.94C1186.96 534.051 1184.62 531.71 1181.73 531.71C1178.84 531.71 1176.5 534.051 1176.5 536.94C1176.5 539.828 1178.84 542.17 1181.73 542.17Z" fill="#98C8DB"/>
<path d="M1214.69 542.17C1217.58 542.17 1219.92 539.828 1219.92 536.94C1219.92 534.051 1217.58 531.71 1214.69 531.71C1211.8 531.71 1209.46 534.051 1209.46 536.94C1209.46 539.828 1211.8 542.17 1214.69 542.17Z" fill="#98C8DB"/>
<path d="M1247.65 542.17C1250.54 542.17 1252.88 539.828 1252.88 536.94C1252.88 534.051 1250.54 531.71 1247.65 531.71C1244.76 531.71 1242.42 534.051 1242.42 536.94C1242.42 539.828 1244.76 542.17 1247.65 542.17Z" fill="#98C8DB"/>
<path d="M1280.6 542.17C1283.49 542.17 1285.83 539.828 1285.83 536.94C1285.83 534.051 1283.49 531.71 1280.6 531.71C1277.71 531.71 1275.37 534.051 1275.37 536.94C1275.37 539.828 1277.71 542.17 1280.6 542.17Z" fill="#98C8DB"/>
<path d="M1314.26 404.8C1317.15 404.8 1319.49 402.458 1319.49 399.57C1319.49 396.681 1317.15 394.34 1314.26 394.34C1311.37 394.34 1309.03 396.681 1309.03 399.57C1309.03 402.458 1311.37 404.8 1314.26 404.8Z" fill="#98C8DB"/>
<path d="M1314.26 439.14C1317.15 439.14 1319.49 436.799 1319.49 433.91C1319.49 431.022 1317.15 428.68 1314.26 428.68C1311.37 428.68 1309.03 431.022 1309.03 433.91C1309.03 436.799 1311.37 439.14 1314.26 439.14Z" fill="#98C8DB"/>
<path d="M1082.87 335.23C1085.76 335.23 1088.1 332.888 1088.1 330C1088.1 327.112 1085.76 324.77 1082.87 324.77C1079.98 324.77 1077.64 327.112 1077.64 330C1077.64 332.888 1079.98 335.23 1082.87 335.23Z" fill="#98C8DB"/>
<path d="M1115.82 335.23C1118.71 335.23 1121.05 332.888 1121.05 330C1121.05 327.112 1118.71 324.77 1115.82 324.77C1112.93 324.77 1110.59 327.112 1110.59 330C1110.59 332.888 1112.93 335.23 1115.82 335.23Z" fill="#98C8DB"/>
<path d="M1148.78 335.23C1151.67 335.23 1154.01 332.888 1154.01 330C1154.01 327.112 1151.67 324.77 1148.78 324.77C1145.89 324.77 1143.55 327.112 1143.55 330C1143.55 332.888 1145.89 335.23 1148.78 335.23Z" fill="#98C8DB"/>
<path d="M1181.73 335.23C1184.62 335.23 1186.96 332.888 1186.96 330C1186.96 327.112 1184.62 324.77 1181.73 324.77C1178.84 324.77 1176.5 327.112 1176.5 330C1176.5 332.888 1178.84 335.23 1181.73 335.23Z" fill="#98C8DB"/>
<path d="M1214.69 335.23C1217.58 335.23 1219.92 332.888 1219.92 330C1219.92 327.112 1217.58 324.77 1214.69 324.77C1211.8 324.77 1209.46 327.112 1209.46 330C1209.46 332.888 1211.8 335.23 1214.69 335.23Z" fill="#98C8DB"/>
<path d="M1247.65 335.23C1250.54 335.23 1252.88 332.888 1252.88 330C1252.88 327.112 1250.54 324.77 1247.65 324.77C1244.76 324.77 1242.42 327.112 1242.42 330C1242.42 332.888 1244.76 335.23 1247.65 335.23Z" fill="#98C8DB"/>
<path d="M1280.6 335.23C1283.49 335.23 1285.83 332.888 1285.83 330C1285.83 327.112 1283.49 324.77 1280.6 324.77C1277.71 324.77 1275.37 327.112 1275.37 330C1275.37 332.888 1277.71 335.23 1280.6 335.23Z" fill="#98C8DB"/>
<path d="M1049.91 335.23C1052.8 335.23 1055.14 332.888 1055.14 330C1055.14 327.112 1052.8 324.77 1049.91 324.77C1047.02 324.77 1044.68 327.112 1044.68 330C1044.68 332.888 1047.02 335.23 1049.91 335.23Z" fill="#98C8DB"/>
<path d="M1099.34 352.4C1102.23 352.4 1104.57 350.058 1104.57 347.17C1104.57 344.282 1102.23 341.94 1099.34 341.94C1096.45 341.94 1094.11 344.282 1094.11 347.17C1094.11 350.058 1096.45 352.4 1099.34 352.4Z" fill="#98C8DB"/>
<path d="M1132.3 352.4C1135.19 352.4 1137.53 350.058 1137.53 347.17C1137.53 344.282 1135.19 341.94 1132.3 341.94C1129.41 341.94 1127.07 344.282 1127.07 347.17C1127.07 350.058 1129.41 352.4 1132.3 352.4Z" fill="#98C8DB"/>
<path d="M1165.26 352.4C1168.15 352.4 1170.49 350.058 1170.49 347.17C1170.49 344.282 1168.15 341.94 1165.26 341.94C1162.37 341.94 1160.03 344.282 1160.03 347.17C1160.03 350.058 1162.37 352.4 1165.26 352.4Z" fill="#98C8DB"/>
<path d="M1198.21 352.4C1201.1 352.4 1203.44 350.058 1203.44 347.17C1203.44 344.282 1201.1 341.94 1198.21 341.94C1195.32 341.94 1192.98 344.282 1192.98 347.17C1192.98 350.058 1195.32 352.4 1198.21 352.4Z" fill="#98C8DB"/>
<path d="M1231.17 352.4C1234.06 352.4 1236.4 350.058 1236.4 347.17C1236.4 344.282 1234.06 341.94 1231.17 341.94C1228.28 341.94 1225.94 344.282 1225.94 347.17C1225.94 350.058 1228.28 352.4 1231.17 352.4Z" fill="#98C8DB"/>
<path d="M1264.12 352.4C1267.01 352.4 1269.35 350.058 1269.35 347.17C1269.35 344.282 1267.01 341.94 1264.12 341.94C1261.23 341.94 1258.89 344.282 1258.89 347.17C1258.89 350.058 1261.23 352.4 1264.12 352.4Z" fill="#98C8DB"/>
<path d="M1297.08 352.4C1299.97 352.4 1302.31 350.058 1302.31 347.17C1302.31 344.282 1299.97 341.94 1297.08 341.94C1294.19 341.94 1291.85 344.282 1291.85 347.17C1291.85 350.058 1294.19 352.4 1297.08 352.4Z" fill="#98C8DB"/>
<path d="M1066.39 352.4C1069.28 352.4 1071.62 350.058 1071.62 347.17C1071.62 344.282 1069.28 341.94 1066.39 341.94C1063.5 341.94 1061.16 344.282 1061.16 347.17C1061.16 350.058 1063.5 352.4 1066.39 352.4Z" fill="#98C8DB"/>
<path d="M1082.87 369.57C1085.76 369.57 1088.1 367.228 1088.1 364.34C1088.1 361.451 1085.76 359.11 1082.87 359.11C1079.98 359.11 1077.64 361.451 1077.64 364.34C1077.64 367.228 1079.98 369.57 1082.87 369.57Z" fill="#98C8DB"/>
<path d="M1115.82 369.57C1118.71 369.57 1121.05 367.228 1121.05 364.34C1121.05 361.451 1118.71 359.11 1115.82 359.11C1112.93 359.11 1110.59 361.451 1110.59 364.34C1110.59 367.228 1112.93 369.57 1115.82 369.57Z" fill="#98C8DB"/>
<path d="M1148.78 369.57C1151.67 369.57 1154.01 367.228 1154.01 364.34C1154.01 361.451 1151.67 359.11 1148.78 359.11C1145.89 359.11 1143.55 361.451 1143.55 364.34C1143.55 367.228 1145.89 369.57 1148.78 369.57Z" fill="#98C8DB"/>
<path d="M1181.73 369.57C1184.62 369.57 1186.96 367.228 1186.96 364.34C1186.96 361.451 1184.62 359.11 1181.73 359.11C1178.84 359.11 1176.5 361.451 1176.5 364.34C1176.5 367.228 1178.84 369.57 1181.73 369.57Z" fill="#98C8DB"/>
<path d="M1214.69 369.57C1217.58 369.57 1219.92 367.228 1219.92 364.34C1219.92 361.451 1217.58 359.11 1214.69 359.11C1211.8 359.11 1209.46 361.451 1209.46 364.34C1209.46 367.228 1211.8 369.57 1214.69 369.57Z" fill="#98C8DB"/>
<path d="M1247.65 369.57C1250.54 369.57 1252.88 367.228 1252.88 364.34C1252.88 361.451 1250.54 359.11 1247.65 359.11C1244.76 359.11 1242.42 361.451 1242.42 364.34C1242.42 367.228 1244.76 369.57 1247.65 369.57Z" fill="#98C8DB"/>
<path d="M1280.6 369.57C1283.49 369.57 1285.83 367.228 1285.83 364.34C1285.83 361.451 1283.49 359.11 1280.6 359.11C1277.71 359.11 1275.37 361.451 1275.37 364.34C1275.37 367.228 1277.71 369.57 1280.6 369.57Z" fill="#98C8DB"/>
<path d="M1049.91 369.57C1052.8 369.57 1055.14 367.228 1055.14 364.34C1055.14 361.451 1052.8 359.11 1049.91 359.11C1047.02 359.11 1044.68 361.451 1044.68 364.34C1044.68 367.228 1047.02 369.57 1049.91 369.57Z" fill="#98C8DB"/>
<path d="M1314.26 335.23C1317.15 335.23 1319.49 332.888 1319.49 330C1319.49 327.112 1317.15 324.77 1314.26 324.77C1311.37 324.77 1309.03 327.112 1309.03 330C1309.03 332.888 1311.37 335.23 1314.26 335.23Z" fill="#98C8DB"/>
<path d="M1314.26 369.57C1317.15 369.57 1319.49 367.228 1319.49 364.34C1319.49 361.451 1317.15 359.11 1314.26 359.11C1311.37 359.11 1309.03 361.451 1309.03 364.34C1309.03 367.228 1311.37 369.57 1314.26 369.57Z" fill="#98C8DB"/>
<path d="M1314.26 473.48C1317.15 473.48 1319.49 471.138 1319.49 468.25C1319.49 465.362 1317.15 463.02 1314.26 463.02C1311.37 463.02 1309.03 465.362 1309.03 468.25C1309.03 471.138 1311.37 473.48 1314.26 473.48Z" fill="#98C8DB"/>
<path d="M1314.26 507.82C1317.15 507.82 1319.49 505.478 1319.49 502.59C1319.49 499.701 1317.15 497.36 1314.26 497.36C1311.37 497.36 1309.03 499.701 1309.03 502.59C1309.03 505.478 1311.37 507.82 1314.26 507.82Z" fill="#98C8DB"/>
<path d="M1314.26 542.17C1317.15 542.17 1319.49 539.828 1319.49 536.94C1319.49 534.051 1317.15 531.71 1314.26 531.71C1311.37 531.71 1309.03 534.051 1309.03 536.94C1309.03 539.828 1311.37 542.17 1314.26 542.17Z" fill="#98C8DB"/>
<path d="M1049.91 542.17C1052.8 542.17 1055.14 539.828 1055.14 536.94C1055.14 534.051 1052.8 531.71 1049.91 531.71C1047.02 531.71 1044.68 534.051 1044.68 536.94C1044.68 539.828 1047.02 542.17 1049.91 542.17Z" fill="#98C8DB"/>
<path d="M1099.34 559.34C1102.23 559.34 1104.57 556.998 1104.57 554.11C1104.57 551.221 1102.23 548.88 1099.34 548.88C1096.45 548.88 1094.11 551.221 1094.11 554.11C1094.11 556.998 1096.45 559.34 1099.34 559.34Z" fill="#98C8DB"/>
<path d="M1132.3 559.34C1135.19 559.34 1137.53 556.998 1137.53 554.11C1137.53 551.221 1135.19 548.88 1132.3 548.88C1129.41 548.88 1127.07 551.221 1127.07 554.11C1127.07 556.998 1129.41 559.34 1132.3 559.34Z" fill="#98C8DB"/>
<path d="M1165.26 559.34C1168.15 559.34 1170.49 556.998 1170.49 554.11C1170.49 551.221 1168.15 548.88 1165.26 548.88C1162.37 548.88 1160.03 551.221 1160.03 554.11C1160.03 556.998 1162.37 559.34 1165.26 559.34Z" fill="#98C8DB"/>
<path d="M1198.21 559.34C1201.1 559.34 1203.44 556.998 1203.44 554.11C1203.44 551.221 1201.1 548.88 1198.21 548.88C1195.32 548.88 1192.98 551.221 1192.98 554.11C1192.98 556.998 1195.32 559.34 1198.21 559.34Z" fill="#98C8DB"/>
<path d="M1231.17 559.34C1234.06 559.34 1236.4 556.998 1236.4 554.11C1236.4 551.221 1234.06 548.88 1231.17 548.88C1228.28 548.88 1225.94 551.221 1225.94 554.11C1225.94 556.998 1228.28 559.34 1231.17 559.34Z" fill="#98C8DB"/>
<path d="M1264.12 559.34C1267.01 559.34 1269.35 556.998 1269.35 554.11C1269.35 551.221 1267.01 548.88 1264.12 548.88C1261.23 548.88 1258.89 551.221 1258.89 554.11C1258.89 556.998 1261.23 559.34 1264.12 559.34Z" fill="#98C8DB"/>
<path d="M1297.08 559.34C1299.97 559.34 1302.31 556.998 1302.31 554.11C1302.31 551.221 1299.97 548.88 1297.08 548.88C1294.19 548.88 1291.85 551.221 1291.85 554.11C1291.85 556.998 1294.19 559.34 1297.08 559.34Z" fill="#98C8DB"/>
<path d="M1066.39 559.34C1069.28 559.34 1071.62 556.998 1071.62 554.11C1071.62 551.221 1069.28 548.88 1066.39 548.88C1063.5 548.88 1061.16 551.221 1061.16 554.11C1061.16 556.998 1063.5 559.34 1066.39 559.34Z" fill="#98C8DB"/>
<path d="M1082.87 577.28C1085.76 577.28 1088.1 574.938 1088.1 572.05C1088.1 569.161 1085.76 566.82 1082.87 566.82C1079.98 566.82 1077.64 569.161 1077.64 572.05C1077.64 574.938 1079.98 577.28 1082.87 577.28Z" fill="#98C8DB"/>
<path d="M1115.82 577.28C1118.71 577.28 1121.05 574.938 1121.05 572.05C1121.05 569.161 1118.71 566.82 1115.82 566.82C1112.93 566.82 1110.59 569.161 1110.59 572.05C1110.59 574.938 1112.93 577.28 1115.82 577.28Z" fill="#98C8DB"/>
<path d="M1148.78 577.28C1151.67 577.28 1154.01 574.938 1154.01 572.05C1154.01 569.161 1151.67 566.82 1148.78 566.82C1145.89 566.82 1143.55 569.161 1143.55 572.05C1143.55 574.938 1145.89 577.28 1148.78 577.28Z" fill="#98C8DB"/>
<path d="M1181.73 577.28C1184.62 577.28 1186.96 574.938 1186.96 572.05C1186.96 569.161 1184.62 566.82 1181.73 566.82C1178.84 566.82 1176.5 569.161 1176.5 572.05C1176.5 574.938 1178.84 577.28 1181.73 577.28Z" fill="#98C8DB"/>
<path d="M1214.69 577.28C1217.58 577.28 1219.92 574.938 1219.92 572.05C1219.92 569.161 1217.58 566.82 1214.69 566.82C1211.8 566.82 1209.46 569.161 1209.46 572.05C1209.46 574.938 1211.8 577.28 1214.69 577.28Z" fill="#98C8DB"/>
<path d="M1247.65 577.28C1250.54 577.28 1252.88 574.938 1252.88 572.05C1252.88 569.161 1250.54 566.82 1247.65 566.82C1244.76 566.82 1242.42 569.161 1242.42 572.05C1242.42 574.938 1244.76 577.28 1247.65 577.28Z" fill="#98C8DB"/>
<path d="M1280.6 577.28C1283.49 577.28 1285.83 574.938 1285.83 572.05C1285.83 569.161 1283.49 566.82 1280.6 566.82C1277.71 566.82 1275.37 569.161 1275.37 572.05C1275.37 574.938 1277.71 577.28 1280.6 577.28Z" fill="#98C8DB"/>
<path d="M1049.91 577.28C1052.8 577.28 1055.14 574.938 1055.14 572.05C1055.14 569.161 1052.8 566.82 1049.91 566.82C1047.02 566.82 1044.68 569.161 1044.68 572.05C1044.68 574.938 1047.02 577.28 1049.91 577.28Z" fill="#98C8DB"/>
<path d="M1099.34 594.36C1102.23 594.36 1104.57 592.018 1104.57 589.13C1104.57 586.241 1102.23 583.9 1099.34 583.9C1096.45 583.9 1094.11 586.241 1094.11 589.13C1094.11 592.018 1096.45 594.36 1099.34 594.36Z" fill="#98C8DB"/>
<path d="M1132.3 594.36C1135.19 594.36 1137.53 592.018 1137.53 589.13C1137.53 586.241 1135.19 583.9 1132.3 583.9C1129.41 583.9 1127.07 586.241 1127.07 589.13C1127.07 592.018 1129.41 594.36 1132.3 594.36Z" fill="#98C8DB"/>
<path d="M1165.26 594.36C1168.15 594.36 1170.49 592.018 1170.49 589.13C1170.49 586.241 1168.15 583.9 1165.26 583.9C1162.37 583.9 1160.03 586.241 1160.03 589.13C1160.03 592.018 1162.37 594.36 1165.26 594.36Z" fill="#98C8DB"/>
<path d="M1198.21 594.36C1201.1 594.36 1203.44 592.018 1203.44 589.13C1203.44 586.241 1201.1 583.9 1198.21 583.9C1195.32 583.9 1192.98 586.241 1192.98 589.13C1192.98 592.018 1195.32 594.36 1198.21 594.36Z" fill="#98C8DB"/>
<path d="M1231.17 594.36C1234.06 594.36 1236.4 592.018 1236.4 589.13C1236.4 586.241 1234.06 583.9 1231.17 583.9C1228.28 583.9 1225.94 586.241 1225.94 589.13C1225.94 592.018 1228.28 594.36 1231.17 594.36Z" fill="#98C8DB"/>
<path d="M1264.12 594.36C1267.01 594.36 1269.35 592.018 1269.35 589.13C1269.35 586.241 1267.01 583.9 1264.12 583.9C1261.23 583.9 1258.89 586.241 1258.89 589.13C1258.89 592.018 1261.23 594.36 1264.12 594.36Z" fill="#98C8DB"/>
<path d="M1066.39 594.36C1069.28 594.36 1071.62 592.018 1071.62 589.13C1071.62 586.241 1069.28 583.9 1066.39 583.9C1063.5 583.9 1061.16 586.241 1061.16 589.13C1061.16 592.018 1063.5 594.36 1066.39 594.36Z" fill="#98C8DB"/>
<path d="M2346.45 818.87C2349.34 818.87 2351.68 816.529 2351.68 813.64C2351.68 810.752 2349.34 808.41 2346.45 808.41C2343.56 808.41 2341.22 810.752 2341.22 813.64C2341.22 816.529 2343.56 818.87 2346.45 818.87Z" fill="#98C8DB"/>
<path d="M2379.41 818.87C2382.3 818.87 2384.64 816.529 2384.64 813.64C2384.64 810.752 2382.3 808.41 2379.41 808.41C2376.52 808.41 2374.18 810.752 2374.18 813.64C2374.18 816.529 2376.52 818.87 2379.41 818.87Z" fill="#98C8DB"/>
<path d="M2412.36 818.87C2415.25 818.87 2417.59 816.529 2417.59 813.64C2417.59 810.752 2415.25 808.41 2412.36 808.41C2409.47 808.41 2407.13 810.752 2407.13 813.64C2407.13 816.529 2409.47 818.87 2412.36 818.87Z" fill="#98C8DB"/>
<path d="M2445.32 818.87C2448.21 818.87 2450.55 816.529 2450.55 813.64C2450.55 810.752 2448.21 808.41 2445.32 808.41C2442.43 808.41 2440.09 810.752 2440.09 813.64C2440.09 816.529 2442.43 818.87 2445.32 818.87Z" fill="#98C8DB"/>
<path d="M2478.27 818.87C2481.16 818.87 2483.5 816.529 2483.5 813.64C2483.5 810.752 2481.16 808.41 2478.27 808.41C2475.38 808.41 2473.04 810.752 2473.04 813.64C2473.04 816.529 2475.38 818.87 2478.27 818.87Z" fill="#98C8DB"/>
<path d="M2511.23 818.87C2514.12 818.87 2516.46 816.529 2516.46 813.64C2516.46 810.752 2514.12 808.41 2511.23 808.41C2508.34 808.41 2506 810.752 2506 813.64C2506 816.529 2508.34 818.87 2511.23 818.87Z" fill="#98C8DB"/>
<path d="M2313.49 818.87C2316.38 818.87 2318.72 816.529 2318.72 813.64C2318.72 810.752 2316.38 808.41 2313.49 808.41C2310.6 808.41 2308.26 810.752 2308.26 813.64C2308.26 816.529 2310.6 818.87 2313.49 818.87Z" fill="#98C8DB"/>
<path d="M2329.97 836.04C2332.86 836.04 2335.2 833.699 2335.2 830.81C2335.2 827.922 2332.86 825.58 2329.97 825.58C2327.08 825.58 2324.74 827.922 2324.74 830.81C2324.74 833.699 2327.08 836.04 2329.97 836.04Z" fill="#98C8DB"/>
<path d="M2362.93 836.04C2365.82 836.04 2368.16 833.699 2368.16 830.81C2368.16 827.922 2365.82 825.58 2362.93 825.58C2360.04 825.58 2357.7 827.922 2357.7 830.81C2357.7 833.699 2360.04 836.04 2362.93 836.04Z" fill="#98C8DB"/>
<path d="M2395.88 836.04C2398.77 836.04 2401.11 833.699 2401.11 830.81C2401.11 827.922 2398.77 825.58 2395.88 825.58C2392.99 825.58 2390.65 827.922 2390.65 830.81C2390.65 833.699 2392.99 836.04 2395.88 836.04Z" fill="#98C8DB"/>
<path d="M2428.84 836.04C2431.73 836.04 2434.07 833.699 2434.07 830.81C2434.07 827.922 2431.73 825.58 2428.84 825.58C2425.95 825.58 2423.61 827.922 2423.61 830.81C2423.61 833.699 2425.95 836.04 2428.84 836.04Z" fill="#98C8DB"/>
<path d="M2461.8 836.04C2464.69 836.04 2467.03 833.699 2467.03 830.81C2467.03 827.922 2464.69 825.58 2461.8 825.58C2458.91 825.58 2456.57 827.922 2456.57 830.81C2456.57 833.699 2458.91 836.04 2461.8 836.04Z" fill="#98C8DB"/>
<path d="M2494.75 836.04C2497.64 836.04 2499.98 833.699 2499.98 830.81C2499.98 827.922 2497.64 825.58 2494.75 825.58C2491.86 825.58 2489.52 827.922 2489.52 830.81C2489.52 833.699 2491.86 836.04 2494.75 836.04Z" fill="#98C8DB"/>
<path d="M2527.71 836.04C2530.6 836.04 2532.94 833.699 2532.94 830.81C2532.94 827.922 2530.6 825.58 2527.71 825.58C2524.82 825.58 2522.48 827.922 2522.48 830.81C2522.48 833.699 2524.82 836.04 2527.71 836.04Z" fill="#98C8DB"/>
<path d="M2297.02 836.04C2299.91 836.04 2302.25 833.699 2302.25 830.81C2302.25 827.922 2299.91 825.58 2297.02 825.58C2294.13 825.58 2291.79 827.922 2291.79 830.81C2291.79 833.699 2294.13 836.04 2297.02 836.04Z" fill="#98C8DB"/>
<path d="M2346.45 853.21C2349.34 853.21 2351.68 850.868 2351.68 847.98C2351.68 845.092 2349.34 842.75 2346.45 842.75C2343.56 842.75 2341.22 845.092 2341.22 847.98C2341.22 850.868 2343.56 853.21 2346.45 853.21Z" fill="#98C8DB"/>
<path d="M2379.41 853.21C2382.3 853.21 2384.64 850.868 2384.64 847.98C2384.64 845.092 2382.3 842.75 2379.41 842.75C2376.52 842.75 2374.18 845.092 2374.18 847.98C2374.18 850.868 2376.52 853.21 2379.41 853.21Z" fill="#98C8DB"/>
<path d="M2412.36 853.21C2415.25 853.21 2417.59 850.868 2417.59 847.98C2417.59 845.092 2415.25 842.75 2412.36 842.75C2409.47 842.75 2407.13 845.092 2407.13 847.98C2407.13 850.868 2409.47 853.21 2412.36 853.21Z" fill="#98C8DB"/>
<path d="M2445.32 853.21C2448.21 853.21 2450.55 850.868 2450.55 847.98C2450.55 845.092 2448.21 842.75 2445.32 842.75C2442.43 842.75 2440.09 845.092 2440.09 847.98C2440.09 850.868 2442.43 853.21 2445.32 853.21Z" fill="#98C8DB"/>
<path d="M2478.27 853.21C2481.16 853.21 2483.5 850.868 2483.5 847.98C2483.5 845.092 2481.16 842.75 2478.27 842.75C2475.38 842.75 2473.04 845.092 2473.04 847.98C2473.04 850.868 2475.38 853.21 2478.27 853.21Z" fill="#98C8DB"/>
<path d="M2511.23 853.21C2514.12 853.21 2516.46 850.868 2516.46 847.98C2516.46 845.092 2514.12 842.75 2511.23 842.75C2508.34 842.75 2506 845.092 2506 847.98C2506 850.868 2508.34 853.21 2511.23 853.21Z" fill="#98C8DB"/>
<path d="M2544.19 853.21C2547.08 853.21 2549.42 850.868 2549.42 847.98C2549.42 845.092 2547.08 842.75 2544.19 842.75C2541.3 842.75 2538.96 845.092 2538.96 847.98C2538.96 850.868 2541.3 853.21 2544.19 853.21Z" fill="#98C8DB"/>
<path d="M2544.19 818.87C2547.08 818.87 2549.42 816.529 2549.42 813.64C2549.42 810.752 2547.08 808.41 2544.19 808.41C2541.3 808.41 2538.96 810.752 2538.96 813.64C2538.96 816.529 2541.3 818.87 2544.19 818.87Z" fill="#98C8DB"/>
<path d="M2313.49 853.21C2316.38 853.21 2318.72 850.868 2318.72 847.98C2318.72 845.092 2316.38 842.75 2313.49 842.75C2310.6 842.75 2308.26 845.092 2308.26 847.98C2308.26 850.868 2310.6 853.21 2313.49 853.21Z" fill="#98C8DB"/>
<path d="M2329.97 870.38C2332.86 870.38 2335.2 868.038 2335.2 865.15C2335.2 862.262 2332.86 859.92 2329.97 859.92C2327.08 859.92 2324.74 862.262 2324.74 865.15C2324.74 868.038 2327.08 870.38 2329.97 870.38Z" fill="#98C8DB"/>
<path d="M2362.93 870.38C2365.82 870.38 2368.16 868.038 2368.16 865.15C2368.16 862.262 2365.82 859.92 2362.93 859.92C2360.04 859.92 2357.7 862.262 2357.7 865.15C2357.7 868.038 2360.04 870.38 2362.93 870.38Z" fill="#98C8DB"/>
<path d="M2395.88 870.38C2398.77 870.38 2401.11 868.038 2401.11 865.15C2401.11 862.262 2398.77 859.92 2395.88 859.92C2392.99 859.92 2390.65 862.262 2390.65 865.15C2390.65 868.038 2392.99 870.38 2395.88 870.38Z" fill="#98C8DB"/>
<path d="M2428.84 870.38C2431.73 870.38 2434.07 868.038 2434.07 865.15C2434.07 862.262 2431.73 859.92 2428.84 859.92C2425.95 859.92 2423.61 862.262 2423.61 865.15C2423.61 868.038 2425.95 870.38 2428.84 870.38Z" fill="#98C8DB"/>
<path d="M2461.8 870.38C2464.69 870.38 2467.03 868.038 2467.03 865.15C2467.03 862.262 2464.69 859.92 2461.8 859.92C2458.91 859.92 2456.57 862.262 2456.57 865.15C2456.57 868.038 2458.91 870.38 2461.8 870.38Z" fill="#98C8DB"/>
<path d="M2494.75 870.38C2497.64 870.38 2499.98 868.038 2499.98 865.15C2499.98 862.262 2497.64 859.92 2494.75 859.92C2491.86 859.92 2489.52 862.262 2489.52 865.15C2489.52 868.038 2491.86 870.38 2494.75 870.38Z" fill="#98C8DB"/>
<path d="M2527.71 870.38C2530.6 870.38 2532.94 868.038 2532.94 865.15C2532.94 862.262 2530.6 859.92 2527.71 859.92C2524.82 859.92 2522.48 862.262 2522.48 865.15C2522.48 868.038 2524.82 870.38 2527.71 870.38Z" fill="#98C8DB"/>
<path d="M2297.02 870.38C2299.91 870.38 2302.25 868.038 2302.25 865.15C2302.25 862.262 2299.91 859.92 2297.02 859.92C2294.13 859.92 2291.79 862.262 2291.79 865.15C2291.79 868.038 2294.13 870.38 2297.02 870.38Z" fill="#98C8DB"/>
<path d="M2561.37 836.04C2564.26 836.04 2566.6 833.699 2566.6 830.81C2566.6 827.922 2564.26 825.58 2561.37 825.58C2558.48 825.58 2556.14 827.922 2556.14 830.81C2556.14 833.699 2558.48 836.04 2561.37 836.04Z" fill="#98C8DB"/>
<path d="M2561.37 870.38C2564.26 870.38 2566.6 868.038 2566.6 865.15C2566.6 862.262 2564.26 859.92 2561.37 859.92C2558.48 859.92 2556.14 862.262 2556.14 865.15C2556.14 868.038 2558.48 870.38 2561.37 870.38Z" fill="#98C8DB"/>
<path d="M2329.97 766.47C2332.86 766.47 2335.2 764.129 2335.2 761.24C2335.2 758.352 2332.86 756.01 2329.97 756.01C2327.08 756.01 2324.74 758.352 2324.74 761.24C2324.74 764.129 2327.08 766.47 2329.97 766.47Z" fill="#98C8DB"/>
<path d="M2362.93 766.47C2365.82 766.47 2368.16 764.129 2368.16 761.24C2368.16 758.352 2365.82 756.01 2362.93 756.01C2360.04 756.01 2357.7 758.352 2357.7 761.24C2357.7 764.129 2360.04 766.47 2362.93 766.47Z" fill="#98C8DB"/>
<path d="M2395.88 766.47C2398.77 766.47 2401.11 764.129 2401.11 761.24C2401.11 758.352 2398.77 756.01 2395.88 756.01C2392.99 756.01 2390.65 758.352 2390.65 761.24C2390.65 764.129 2392.99 766.47 2395.88 766.47Z" fill="#98C8DB"/>
<path d="M2428.84 766.47C2431.73 766.47 2434.07 764.129 2434.07 761.24C2434.07 758.352 2431.73 756.01 2428.84 756.01C2425.95 756.01 2423.61 758.352 2423.61 761.24C2423.61 764.129 2425.95 766.47 2428.84 766.47Z" fill="#98C8DB"/>
<path d="M2461.8 766.47C2464.69 766.47 2467.03 764.129 2467.03 761.24C2467.03 758.352 2464.69 756.01 2461.8 756.01C2458.91 756.01 2456.57 758.352 2456.57 761.24C2456.57 764.129 2458.91 766.47 2461.8 766.47Z" fill="#98C8DB"/>
<path d="M2494.75 766.47C2497.64 766.47 2499.98 764.129 2499.98 761.24C2499.98 758.352 2497.64 756.01 2494.75 756.01C2491.86 756.01 2489.52 758.352 2489.52 761.24C2489.52 764.129 2491.86 766.47 2494.75 766.47Z" fill="#98C8DB"/>
<path d="M2527.71 766.47C2530.6 766.47 2532.94 764.129 2532.94 761.24C2532.94 758.352 2530.6 756.01 2527.71 756.01C2524.82 756.01 2522.48 758.352 2522.48 761.24C2522.48 764.129 2524.82 766.47 2527.71 766.47Z" fill="#98C8DB"/>
<path d="M2297.02 766.47C2299.91 766.47 2302.25 764.129 2302.25 761.24C2302.25 758.352 2299.91 756.01 2297.02 756.01C2294.13 756.01 2291.79 758.352 2291.79 761.24C2291.79 764.129 2294.13 766.47 2297.02 766.47Z" fill="#98C8DB"/>
<path d="M2346.45 783.64C2349.34 783.64 2351.68 781.299 2351.68 778.41C2351.68 775.522 2349.34 773.18 2346.45 773.18C2343.56 773.18 2341.22 775.522 2341.22 778.41C2341.22 781.299 2343.56 783.64 2346.45 783.64Z" fill="#98C8DB"/>
<path d="M2379.41 783.64C2382.3 783.64 2384.64 781.299 2384.64 778.41C2384.64 775.522 2382.3 773.18 2379.41 773.18C2376.52 773.18 2374.18 775.522 2374.18 778.41C2374.18 781.299 2376.52 783.64 2379.41 783.64Z" fill="#98C8DB"/>
<path d="M2412.36 783.64C2415.25 783.64 2417.59 781.299 2417.59 778.41C2417.59 775.522 2415.25 773.18 2412.36 773.18C2409.47 773.18 2407.13 775.522 2407.13 778.41C2407.13 781.299 2409.47 783.64 2412.36 783.64Z" fill="#98C8DB"/>
<path d="M2445.32 783.64C2448.21 783.64 2450.55 781.299 2450.55 778.41C2450.55 775.522 2448.21 773.18 2445.32 773.18C2442.43 773.18 2440.09 775.522 2440.09 778.41C2440.09 781.299 2442.43 783.64 2445.32 783.64Z" fill="#98C8DB"/>
<path d="M2478.27 783.64C2481.16 783.64 2483.5 781.299 2483.5 778.41C2483.5 775.522 2481.16 773.18 2478.27 773.18C2475.38 773.18 2473.04 775.522 2473.04 778.41C2473.04 781.299 2475.38 783.64 2478.27 783.64Z" fill="#98C8DB"/>
<path d="M2511.23 783.64C2514.12 783.64 2516.46 781.299 2516.46 778.41C2516.46 775.522 2514.12 773.18 2511.23 773.18C2508.34 773.18 2506 775.522 2506 778.41C2506 781.299 2508.34 783.64 2511.23 783.64Z" fill="#98C8DB"/>
<path d="M2544.19 783.64C2547.08 783.64 2549.42 781.299 2549.42 778.41C2549.42 775.522 2547.08 773.18 2544.19 773.18C2541.3 773.18 2538.96 775.522 2538.96 778.41C2538.96 781.299 2541.3 783.64 2544.19 783.64Z" fill="#98C8DB"/>
<path d="M2313.49 783.64C2316.38 783.64 2318.72 781.299 2318.72 778.41C2318.72 775.522 2316.38 773.18 2313.49 773.18C2310.6 773.18 2308.26 775.522 2308.26 778.41C2308.26 781.299 2310.6 783.64 2313.49 783.64Z" fill="#98C8DB"/>
<path d="M2329.97 800.81C2332.86 800.81 2335.2 798.469 2335.2 795.58C2335.2 792.692 2332.86 790.35 2329.97 790.35C2327.08 790.35 2324.74 792.692 2324.74 795.58C2324.74 798.469 2327.08 800.81 2329.97 800.81Z" fill="#98C8DB"/>
<path d="M2362.93 800.81C2365.82 800.81 2368.16 798.469 2368.16 795.58C2368.16 792.692 2365.82 790.35 2362.93 790.35C2360.04 790.35 2357.7 792.692 2357.7 795.58C2357.7 798.469 2360.04 800.81 2362.93 800.81Z" fill="#98C8DB"/>
<path d="M2395.88 800.81C2398.77 800.81 2401.11 798.469 2401.11 795.58C2401.11 792.692 2398.77 790.35 2395.88 790.35C2392.99 790.35 2390.65 792.692 2390.65 795.58C2390.65 798.469 2392.99 800.81 2395.88 800.81Z" fill="#98C8DB"/>
<path d="M2428.84 800.81C2431.73 800.81 2434.07 798.469 2434.07 795.58C2434.07 792.692 2431.73 790.35 2428.84 790.35C2425.95 790.35 2423.61 792.692 2423.61 795.58C2423.61 798.469 2425.95 800.81 2428.84 800.81Z" fill="#98C8DB"/>
<path d="M2461.8 800.81C2464.69 800.81 2467.03 798.469 2467.03 795.58C2467.03 792.692 2464.69 790.35 2461.8 790.35C2458.91 790.35 2456.57 792.692 2456.57 795.58C2456.57 798.469 2458.91 800.81 2461.8 800.81Z" fill="#98C8DB"/>
<path d="M2494.75 800.81C2497.64 800.81 2499.98 798.469 2499.98 795.58C2499.98 792.692 2497.64 790.35 2494.75 790.35C2491.86 790.35 2489.52 792.692 2489.52 795.58C2489.52 798.469 2491.86 800.81 2494.75 800.81Z" fill="#98C8DB"/>
<path d="M2527.71 800.81C2530.6 800.81 2532.94 798.469 2532.94 795.58C2532.94 792.692 2530.6 790.35 2527.71 790.35C2524.82 790.35 2522.48 792.692 2522.48 795.58C2522.48 798.469 2524.82 800.81 2527.71 800.81Z" fill="#98C8DB"/>
<path d="M2297.02 800.81C2299.91 800.81 2302.25 798.469 2302.25 795.58C2302.25 792.692 2299.91 790.35 2297.02 790.35C2294.13 790.35 2291.79 792.692 2291.79 795.58C2291.79 798.469 2294.13 800.81 2297.02 800.81Z" fill="#98C8DB"/>
<path d="M2561.37 766.47C2564.26 766.47 2566.6 764.129 2566.6 761.24C2566.6 758.352 2564.26 756.01 2561.37 756.01C2558.48 756.01 2556.14 758.352 2556.14 761.24C2556.14 764.129 2558.48 766.47 2561.37 766.47Z" fill="#98C8DB"/>
<path d="M2561.37 800.81C2564.26 800.81 2566.6 798.469 2566.6 795.58C2566.6 792.692 2564.26 790.35 2561.37 790.35C2558.48 790.35 2556.14 792.692 2556.14 795.58C2556.14 798.469 2558.48 800.81 2561.37 800.81Z" fill="#98C8DB"/>
<path d="M2611.25 818.87C2614.14 818.87 2616.48 816.529 2616.48 813.64C2616.48 810.752 2614.14 808.41 2611.25 808.41C2608.36 808.41 2606.02 810.752 2606.02 813.64C2606.02 816.529 2608.36 818.87 2611.25 818.87Z" fill="#98C8DB"/>
<path d="M2644.21 818.87C2647.1 818.87 2649.44 816.529 2649.44 813.64C2649.44 810.752 2647.1 808.41 2644.21 808.41C2641.32 808.41 2638.98 810.752 2638.98 813.64C2638.98 816.529 2641.32 818.87 2644.21 818.87Z" fill="#98C8DB"/>
<path d="M2677.16 818.87C2680.05 818.87 2682.39 816.529 2682.39 813.64C2682.39 810.752 2680.05 808.41 2677.16 808.41C2674.27 808.41 2671.93 810.752 2671.93 813.64C2671.93 816.529 2674.27 818.87 2677.16 818.87Z" fill="#98C8DB"/>
<path d="M2710.12 818.87C2713.01 818.87 2715.35 816.529 2715.35 813.64C2715.35 810.752 2713.01 808.41 2710.12 808.41C2707.23 808.41 2704.89 810.752 2704.89 813.64C2704.89 816.529 2707.23 818.87 2710.12 818.87Z" fill="#98C8DB"/>
<path d="M2743.08 818.87C2745.97 818.87 2748.31 816.529 2748.31 813.64C2748.31 810.752 2745.97 808.41 2743.08 808.41C2740.19 808.41 2737.85 810.752 2737.85 813.64C2737.85 816.529 2740.19 818.87 2743.08 818.87Z" fill="#98C8DB"/>
<path d="M2578.3 818.87C2581.19 818.87 2583.53 816.529 2583.53 813.64C2583.53 810.752 2581.19 808.41 2578.3 808.41C2575.41 808.41 2573.07 810.752 2573.07 813.64C2573.07 816.529 2575.41 818.87 2578.3 818.87Z" fill="#98C8DB"/>
<path d="M2594.77 836.04C2597.66 836.04 2600 833.699 2600 830.81C2600 827.922 2597.66 825.58 2594.77 825.58C2591.88 825.58 2589.54 827.922 2589.54 830.81C2589.54 833.699 2591.88 836.04 2594.77 836.04Z" fill="#98C8DB"/>
<path d="M2627.73 836.04C2630.62 836.04 2632.96 833.699 2632.96 830.81C2632.96 827.922 2630.62 825.58 2627.73 825.58C2624.84 825.58 2622.5 827.922 2622.5 830.81C2622.5 833.699 2624.84 836.04 2627.73 836.04Z" fill="#98C8DB"/>
<path d="M2660.69 836.04C2663.58 836.04 2665.92 833.699 2665.92 830.81C2665.92 827.922 2663.58 825.58 2660.69 825.58C2657.8 825.58 2655.46 827.922 2655.46 830.81C2655.46 833.699 2657.8 836.04 2660.69 836.04Z" fill="#98C8DB"/>
<path d="M2693.64 836.04C2696.53 836.04 2698.87 833.699 2698.87 830.81C2698.87 827.922 2696.53 825.58 2693.64 825.58C2690.75 825.58 2688.41 827.922 2688.41 830.81C2688.41 833.699 2690.75 836.04 2693.64 836.04Z" fill="#98C8DB"/>
<path d="M2726.6 836.04C2729.49 836.04 2731.83 833.699 2731.83 830.81C2731.83 827.922 2729.49 825.58 2726.6 825.58C2723.71 825.58 2721.37 827.922 2721.37 830.81C2721.37 833.699 2723.71 836.04 2726.6 836.04Z" fill="#98C8DB"/>
<path d="M2759.55 836.04C2762.44 836.04 2764.78 833.699 2764.78 830.81C2764.78 827.922 2762.44 825.58 2759.55 825.58C2756.66 825.58 2754.32 827.922 2754.32 830.81C2754.32 833.699 2756.66 836.04 2759.55 836.04Z" fill="#98C8DB"/>
<path d="M2611.25 853.21C2614.14 853.21 2616.48 850.868 2616.48 847.98C2616.48 845.092 2614.14 842.75 2611.25 842.75C2608.36 842.75 2606.02 845.092 2606.02 847.98C2606.02 850.868 2608.36 853.21 2611.25 853.21Z" fill="#98C8DB"/>
<path d="M2644.21 853.21C2647.1 853.21 2649.44 850.868 2649.44 847.98C2649.44 845.092 2647.1 842.75 2644.21 842.75C2641.32 842.75 2638.98 845.092 2638.98 847.98C2638.98 850.868 2641.32 853.21 2644.21 853.21Z" fill="#98C8DB"/>
<path d="M2677.16 853.21C2680.05 853.21 2682.39 850.868 2682.39 847.98C2682.39 845.092 2680.05 842.75 2677.16 842.75C2674.27 842.75 2671.93 845.092 2671.93 847.98C2671.93 850.868 2674.27 853.21 2677.16 853.21Z" fill="#98C8DB"/>
<path d="M2710.12 853.21C2713.01 853.21 2715.35 850.868 2715.35 847.98C2715.35 845.092 2713.01 842.75 2710.12 842.75C2707.23 842.75 2704.89 845.092 2704.89 847.98C2704.89 850.868 2707.23 853.21 2710.12 853.21Z" fill="#98C8DB"/>
<path d="M2743.08 853.21C2745.97 853.21 2748.31 850.868 2748.31 847.98C2748.31 845.092 2745.97 842.75 2743.08 842.75C2740.19 842.75 2737.85 845.092 2737.85 847.98C2737.85 850.868 2740.19 853.21 2743.08 853.21Z" fill="#98C8DB"/>
<path d="M2578.3 853.21C2581.19 853.21 2583.53 850.868 2583.53 847.98C2583.53 845.092 2581.19 842.75 2578.3 842.75C2575.41 842.75 2573.07 845.092 2573.07 847.98C2573.07 850.868 2575.41 853.21 2578.3 853.21Z" fill="#98C8DB"/>
<path d="M2594.77 870.38C2597.66 870.38 2600 868.038 2600 865.15C2600 862.262 2597.66 859.92 2594.77 859.92C2591.88 859.92 2589.54 862.262 2589.54 865.15C2589.54 868.038 2591.88 870.38 2594.77 870.38Z" fill="#98C8DB"/>
<path d="M2627.73 870.38C2630.62 870.38 2632.96 868.038 2632.96 865.15C2632.96 862.262 2630.62 859.92 2627.73 859.92C2624.84 859.92 2622.5 862.262 2622.5 865.15C2622.5 868.038 2624.84 870.38 2627.73 870.38Z" fill="#98C8DB"/>
<path d="M2660.69 870.38C2663.58 870.38 2665.92 868.038 2665.92 865.15C2665.92 862.262 2663.58 859.92 2660.69 859.92C2657.8 859.92 2655.46 862.262 2655.46 865.15C2655.46 868.038 2657.8 870.38 2660.69 870.38Z" fill="#98C8DB"/>
<path d="M2693.64 870.38C2696.53 870.38 2698.87 868.038 2698.87 865.15C2698.87 862.262 2696.53 859.92 2693.64 859.92C2690.75 859.92 2688.41 862.262 2688.41 865.15C2688.41 868.038 2690.75 870.38 2693.64 870.38Z" fill="#98C8DB"/>
<path d="M2726.6 870.38C2729.49 870.38 2731.83 868.038 2731.83 865.15C2731.83 862.262 2729.49 859.92 2726.6 859.92C2723.71 859.92 2721.37 862.262 2721.37 865.15C2721.37 868.038 2723.71 870.38 2726.6 870.38Z" fill="#98C8DB"/>
<path d="M2759.55 870.38C2762.44 870.38 2764.78 868.038 2764.78 865.15C2764.78 862.262 2762.44 859.92 2759.55 859.92C2756.66 859.92 2754.32 862.262 2754.32 865.15C2754.32 868.038 2756.66 870.38 2759.55 870.38Z" fill="#98C8DB"/>
<path d="M2594.77 766.47C2597.66 766.47 2600 764.129 2600 761.24C2600 758.352 2597.66 756.01 2594.77 756.01C2591.88 756.01 2589.54 758.352 2589.54 761.24C2589.54 764.129 2591.88 766.47 2594.77 766.47Z" fill="#98C8DB"/>
<path d="M2627.73 766.47C2630.62 766.47 2632.96 764.129 2632.96 761.24C2632.96 758.352 2630.62 756.01 2627.73 756.01C2624.84 756.01 2622.5 758.352 2622.5 761.24C2622.5 764.129 2624.84 766.47 2627.73 766.47Z" fill="#98C8DB"/>
<path d="M2660.69 766.47C2663.58 766.47 2665.92 764.129 2665.92 761.24C2665.92 758.352 2663.58 756.01 2660.69 756.01C2657.8 756.01 2655.46 758.352 2655.46 761.24C2655.46 764.129 2657.8 766.47 2660.69 766.47Z" fill="#98C8DB"/>
<path d="M2693.64 766.47C2696.53 766.47 2698.87 764.129 2698.87 761.24C2698.87 758.352 2696.53 756.01 2693.64 756.01C2690.75 756.01 2688.41 758.352 2688.41 761.24C2688.41 764.129 2690.75 766.47 2693.64 766.47Z" fill="#98C8DB"/>
<path d="M2726.6 766.47C2729.49 766.47 2731.83 764.129 2731.83 761.24C2731.83 758.352 2729.49 756.01 2726.6 756.01C2723.71 756.01 2721.37 758.352 2721.37 761.24C2721.37 764.129 2723.71 766.47 2726.6 766.47Z" fill="#98C8DB"/>
<path d="M2759.55 766.47C2762.44 766.47 2764.78 764.129 2764.78 761.24C2764.78 758.352 2762.44 756.01 2759.55 756.01C2756.66 756.01 2754.32 758.352 2754.32 761.24C2754.32 764.129 2756.66 766.47 2759.55 766.47Z" fill="#98C8DB"/>
<path d="M2611.25 783.64C2614.14 783.64 2616.48 781.299 2616.48 778.41C2616.48 775.522 2614.14 773.18 2611.25 773.18C2608.36 773.18 2606.02 775.522 2606.02 778.41C2606.02 781.299 2608.36 783.64 2611.25 783.64Z" fill="#98C8DB"/>
<path d="M2644.21 783.64C2647.1 783.64 2649.44 781.299 2649.44 778.41C2649.44 775.522 2647.1 773.18 2644.21 773.18C2641.32 773.18 2638.98 775.522 2638.98 778.41C2638.98 781.299 2641.32 783.64 2644.21 783.64Z" fill="#98C8DB"/>
<path d="M2677.16 783.64C2680.05 783.64 2682.39 781.299 2682.39 778.41C2682.39 775.522 2680.05 773.18 2677.16 773.18C2674.27 773.18 2671.93 775.522 2671.93 778.41C2671.93 781.299 2674.27 783.64 2677.16 783.64Z" fill="#98C8DB"/>
<path d="M2710.12 783.64C2713.01 783.64 2715.35 781.299 2715.35 778.41C2715.35 775.522 2713.01 773.18 2710.12 773.18C2707.23 773.18 2704.89 775.522 2704.89 778.41C2704.89 781.299 2707.23 783.64 2710.12 783.64Z" fill="#98C8DB"/>
<path d="M2743.08 783.64C2745.97 783.64 2748.31 781.299 2748.31 778.41C2748.31 775.522 2745.97 773.18 2743.08 773.18C2740.19 773.18 2737.85 775.522 2737.85 778.41C2737.85 781.299 2740.19 783.64 2743.08 783.64Z" fill="#98C8DB"/>
<path d="M2578.3 783.64C2581.19 783.64 2583.53 781.299 2583.53 778.41C2583.53 775.522 2581.19 773.18 2578.3 773.18C2575.41 773.18 2573.07 775.522 2573.07 778.41C2573.07 781.299 2575.41 783.64 2578.3 783.64Z" fill="#98C8DB"/>
<path d="M2594.77 800.81C2597.66 800.81 2600 798.469 2600 795.58C2600 792.692 2597.66 790.35 2594.77 790.35C2591.88 790.35 2589.54 792.692 2589.54 795.58C2589.54 798.469 2591.88 800.81 2594.77 800.81Z" fill="#98C8DB"/>
<path d="M2627.73 800.81C2630.62 800.81 2632.96 798.469 2632.96 795.58C2632.96 792.692 2630.62 790.35 2627.73 790.35C2624.84 790.35 2622.5 792.692 2622.5 795.58C2622.5 798.469 2624.84 800.81 2627.73 800.81Z" fill="#98C8DB"/>
<path d="M2660.69 800.81C2663.58 800.81 2665.92 798.469 2665.92 795.58C2665.92 792.692 2663.58 790.35 2660.69 790.35C2657.8 790.35 2655.46 792.692 2655.46 795.58C2655.46 798.469 2657.8 800.81 2660.69 800.81Z" fill="#98C8DB"/>
<path d="M2693.64 800.81C2696.53 800.81 2698.87 798.469 2698.87 795.58C2698.87 792.692 2696.53 790.35 2693.64 790.35C2690.75 790.35 2688.41 792.692 2688.41 795.58C2688.41 798.469 2690.75 800.81 2693.64 800.81Z" fill="#98C8DB"/>
<path d="M2726.6 800.81C2729.49 800.81 2731.83 798.469 2731.83 795.58C2731.83 792.692 2729.49 790.35 2726.6 790.35C2723.71 790.35 2721.37 792.692 2721.37 795.58C2721.37 798.469 2723.71 800.81 2726.6 800.81Z" fill="#98C8DB"/>
<path d="M2759.55 800.81C2762.44 800.81 2764.78 798.469 2764.78 795.58C2764.78 792.692 2762.44 790.35 2759.55 790.35C2756.66 790.35 2754.32 792.692 2754.32 795.58C2754.32 798.469 2756.66 800.81 2759.55 800.81Z" fill="#98C8DB"/>
<path d="M2555.63 1064.47C2555.63 1089.03 2600.11 1169.47 2600.11 1169.47C2600.11 1169.47 2644.59 1089 2644.59 1064.47C2644.59 1052.67 2639.9 1041.35 2631.56 1033C2623.21 1024.66 2611.89 1019.97 2600.09 1019.97C2588.29 1019.97 2576.97 1024.66 2568.62 1033C2560.28 1041.35 2555.59 1052.67 2555.59 1064.47H2555.63ZM2586.42 1065.14C2586.42 1062.43 2587.22 1059.78 2588.72 1057.53C2590.22 1055.27 2592.36 1053.52 2594.86 1052.48C2597.36 1051.44 2600.11 1051.16 2602.77 1051.69C2605.43 1052.22 2607.87 1053.52 2609.78 1055.43C2611.7 1057.35 2613.01 1059.79 2613.54 1062.44C2614.07 1065.1 2613.8 1067.85 2612.76 1070.35C2611.72 1072.86 2609.97 1075 2607.72 1076.5C2605.47 1078.01 2602.82 1078.81 2600.11 1078.81C2596.48 1078.81 2593 1077.37 2590.44 1074.81C2587.87 1072.24 2586.42 1068.77 2586.42 1065.14V1065.14Z" fill="#FFC200"/>
<path d="M2643.98 1368.35H2787.05V1289.58H2643.98V1368.35Z" fill="#BDDCE8"/>
<path d="M2566.46 1217.23H2709.53L2787.05 1289.57H2643.98L2566.46 1217.23Z" fill="#98C8DB"/>
<path d="M2488.85 1289.57L2566.37 1217.23L2643.98 1289.57V1368.34L2721.5 1440.68H2488.85V1289.57Z" fill="white"/>
<path d="M2643.98 1368.34H2787.05L2864.57 1440.68H2721.5L2643.98 1368.34Z" fill="#98C8DB"/>
<path d="M2568.13 1294.93H2581.07V1281.99H2568.13V1294.93Z" fill="#F3B304"/>
<path d="M2549.02 1294.93H2561.96V1281.99H2549.02V1294.93Z" fill="#F3B304"/>
<path d="M2568.13 1313.34H2581.07V1300.4H2568.13V1313.34Z" fill="#F3B304"/>
<path d="M2549.02 1313.34H2561.96V1300.4H2549.02V1313.34Z" fill="#F3B304"/>
<path d="M2568.13 1367.51H2581.07V1354.57H2568.13V1367.51Z" fill="#98C8DB"/>
<path d="M2549.02 1367.51H2561.96V1354.57H2549.02V1367.51Z" fill="#98C8DB"/>
<path d="M2568.13 1385.91H2581.07V1372.97H2568.13V1385.91Z" fill="#98C8DB"/>
<path d="M2549.02 1385.91H2561.96V1372.97H2549.02V1385.91Z" fill="#98C8DB"/>
<path d="M1353.62 173.03L1243.86 208.69V287.29H1128.71V208.69L1238.47 173.03H1353.62Z" fill="#98C8DB"/>
<path d="M1243.86 287.3V208.69L1352.67 173.03L1462.43 208.69V287.3H1243.86Z" fill="white"/>
<path d="M1278.73 218.86H1428.37C1428.83 218.86 1429.28 218.95 1429.7 219.125C1430.12 219.3 1430.51 219.556 1430.83 219.879C1431.15 220.202 1431.41 220.586 1431.59 221.008C1431.76 221.43 1431.85 221.883 1431.85 222.34V287.34H1275.25V222.34C1275.25 221.883 1275.34 221.43 1275.51 221.008C1275.69 220.586 1275.95 220.202 1276.27 219.879C1276.59 219.556 1276.98 219.3 1277.4 219.125C1277.82 218.95 1278.27 218.86 1278.73 218.86Z" fill="#98C8DB"/>
<path d="M1275.25 231.57H1431.86" stroke="white" stroke-width="3" stroke-miterlimit="10"/>
<path d="M1275.25 246.26H1431.86" stroke="white" stroke-width="3" stroke-miterlimit="10"/>
<path d="M1275.25 260.96H1431.86" stroke="white" stroke-width="3" stroke-miterlimit="10"/>
<path d="M1275.25 275.66H1431.86" stroke="white" stroke-width="3" stroke-miterlimit="10"/>
<path d="M1351.66 1.94157e-05C1340.74 0.0132673 1330.27 4.3595 1322.56 12.0843C1314.84 19.8091 1310.5 30.2808 1310.5 41.2C1310.5 63.95 1351.71 138.49 1351.71 138.49C1351.71 138.49 1392.91 63.95 1392.91 41.2C1392.91 35.7857 1391.84 30.4247 1389.77 25.4235C1387.69 20.4222 1384.65 15.8786 1380.82 12.0525C1376.99 8.2263 1372.44 5.19252 1367.44 3.1245C1362.44 1.05648 1357.07 -0.00523607 1351.66 1.94157e-05V1.94157e-05ZM1351.66 54.49C1349.15 54.492 1346.7 53.7498 1344.61 52.3572C1342.52 50.9647 1340.9 48.9844 1339.94 46.6671C1338.98 44.3497 1338.72 41.7993 1339.21 39.3387C1339.7 36.8781 1340.91 34.6178 1342.68 32.8439C1344.46 31.07 1346.72 29.8621 1349.18 29.3732C1351.64 28.8842 1354.19 29.1362 1356.51 30.0971C1358.82 31.0581 1360.8 32.6849 1362.2 34.7716C1363.59 36.8584 1364.33 39.3113 1364.33 41.82C1364.33 43.4842 1364 45.1324 1363.37 46.6702C1362.73 48.208 1361.8 49.6052 1360.62 50.782C1359.45 51.9588 1358.05 52.892 1356.51 53.5283C1354.97 54.1645 1353.32 54.4913 1351.66 54.49V54.49Z" fill="#FFC200"/>
<path d="M1061.34 243.61H1029.88V287.29H1061.34V243.61Z" fill="#A74602"/>
<path d="M1126.54 243.61H1061.34V287.29H1126.54V243.61Z" fill="#F3B304"/>
<path d="M1145.69 243.61H1126.54V287.29H1145.69V243.61Z" fill="#A74602"/>
<path d="M1210.44 243.61H1145.69V287.29H1210.44V243.61Z" fill="#F3B304"/>
<path d="M1116.13 209.26H1088.1V243.61H1116.13V209.26Z" fill="#A74602"/>
<path d="M1173.58 209.26H1116.12V243.61H1173.58V209.26Z" fill="#F3B304"/>
<path opacity="0.5" d="M2140.33 886.33C2178.16 886.33 2208.83 855.662 2208.83 817.83C2208.83 779.999 2178.16 749.33 2140.33 749.33C2102.5 749.33 2071.83 779.999 2071.83 817.83C2071.83 855.662 2102.5 886.33 2140.33 886.33Z" fill="white"/>
<path d="M2140.33 886.33C2178.16 886.33 2208.83 855.662 2208.83 817.83C2208.83 779.999 2178.16 749.33 2140.33 749.33C2102.5 749.33 2071.83 779.999 2071.83 817.83C2071.83 855.662 2102.5 886.33 2140.33 886.33Z" stroke="#F3B304" stroke-width="5" stroke-miterlimit="10"/>
<path d="M1345.59 298.52V352.05C1345.59 368.932 1352.3 385.123 1364.23 397.061C1376.17 408.999 1392.36 415.707 1409.24 415.71H1835.5V415.76C1835.5 423.359 1838.52 430.648 1843.89 436.022C1849.26 441.397 1856.55 444.417 1864.15 444.42V444.42V637.16C1864.15 644.56 1866.09 651.831 1869.78 658.248C1873.46 664.666 1878.76 670.007 1885.15 673.74L2138.5 821.63" stroke="#F3B304" stroke-width="5" stroke-linejoin="round"/>
<path d="M2094.91 842.88H2174.95L2137.7 767.7V818.52L2094.91 842.88Z" fill="#F3B304"/>
<path d="M1856.11 1871.38H2237.65L2327.27 1854.49H1945.73L1856.11 1871.38Z" fill="#CEE4ED"/>
<path d="M1247.04 1871.38H1628.58L1718.2 1854.49H1336.67L1247.04 1871.38Z" fill="#CEE4ED"/>
<path d="M637.98 1871.38H1019.51L1109.14 1854.49H727.6L637.98 1871.38Z" fill="#CEE4ED"/>
<path d="M28.9102 1871.38H410.44L500.07 1854.49H118.53L28.9102 1871.38Z" fill="#CEE4ED"/>
<path d="M2022.96 1851.69C2084.58 1851.69 2134.53 1801.74 2134.53 1740.12C2134.53 1678.5 2084.58 1628.55 2022.96 1628.55C1961.34 1628.55 1911.39 1678.5 1911.39 1740.12C1911.39 1801.74 1961.34 1851.69 2022.96 1851.69Z" fill="#59221D"/>
<path d="M2214.63 1403.06L2027.4 1261.65L1834.12 808.08C1823.21 782.494 1805.03 760.678 1781.83 745.343C1758.62 730.008 1731.42 721.832 1703.61 721.83H308.61C284.511 721.833 261.401 731.408 244.362 748.449C227.322 765.49 217.75 788.602 217.75 812.7V1689.51H2246.7V1467.51C2246.71 1455.02 2243.82 1442.69 2238.25 1431.51C2232.69 1420.33 2224.6 1410.59 2214.63 1403.06V1403.06Z" fill="#FFC200" stroke="#592D29" stroke-width="5" stroke-miterlimit="10"/>
<path d="M2246.69 1467.46V1689.46H1690.9V1467.46C1690.9 1454.97 1688.01 1442.66 1682.44 1431.48C1676.88 1420.31 1668.79 1410.57 1658.83 1403.05L1471.61 1261.64L1278.32 808.09C1267.42 782.501 1249.23 760.682 1226.03 745.346C1202.83 730.009 1175.63 721.831 1147.81 721.83H1703.61C1731.42 721.831 1758.63 730.009 1781.83 745.346C1805.03 760.682 1823.22 782.501 1834.12 808.09L2027.4 1261.64L2214.63 1403.05C2224.59 1410.57 2232.67 1420.31 2238.24 1431.48C2243.8 1442.66 2246.69 1454.98 2246.69 1467.46Z" fill="white" stroke="#592D29" stroke-width="5" stroke-miterlimit="10"/>
<path d="M180.33 1689.51H2278.5C2283.69 1689.51 2288.67 1691.57 2292.35 1695.24C2296.02 1698.92 2298.08 1703.9 2298.08 1709.09V1740.09H160.75V1709.09C160.75 1706.52 161.256 1703.97 162.24 1701.6C163.224 1699.22 164.667 1697.06 166.485 1695.24C168.303 1693.43 170.461 1691.98 172.837 1691C175.213 1690.02 177.759 1689.51 180.33 1689.51V1689.51Z" fill="white" stroke="#592D29" stroke-width="5" stroke-miterlimit="10"/>
<path d="M2096.79 1553.24H1858.94C1853.97 1553.24 1849.95 1557.27 1849.95 1562.23V1618.31C1849.95 1623.28 1853.97 1627.3 1858.94 1627.3H2096.79C2101.75 1627.3 2105.78 1623.28 2105.78 1618.31V1562.23C2105.78 1557.27 2101.75 1553.24 2096.79 1553.24Z" fill="#98C8DB"/>
<path d="M2108.97 1544.38H1871.12C1866.16 1544.38 1862.13 1548.4 1862.13 1553.37V1609.45C1862.13 1614.41 1866.16 1618.44 1871.12 1618.44H2108.97C2113.94 1618.44 2117.96 1614.41 2117.96 1609.45V1553.37C2117.96 1548.4 2113.94 1544.38 2108.97 1544.38Z" stroke="#592D29" stroke-width="5" stroke-miterlimit="10"/>
<path d="M2034.64 1562.89C2037.25 1562.89 2039.36 1560.78 2039.36 1558.17C2039.36 1555.56 2037.25 1553.45 2034.64 1553.45C2032.03 1553.45 2029.92 1555.56 2029.92 1558.17C2029.92 1560.78 2032.03 1562.89 2034.64 1562.89Z" fill="#59221D"/>
<path d="M2064.37 1562.89C2066.98 1562.89 2069.09 1560.78 2069.09 1558.17C2069.09 1555.56 2066.98 1553.45 2064.37 1553.45C2061.76 1553.45 2059.65 1555.56 2059.65 1558.17C2059.65 1560.78 2061.76 1562.89 2064.37 1562.89Z" fill="#59221D"/>
<path d="M2094.1 1562.89C2096.71 1562.89 2098.82 1560.78 2098.82 1558.17C2098.82 1555.56 2096.71 1553.45 2094.1 1553.45C2091.49 1553.45 2089.38 1555.56 2089.38 1558.17C2089.38 1560.78 2091.49 1562.89 2094.1 1562.89Z" fill="#59221D"/>
<path d="M1885.99 1562.89C1888.6 1562.89 1890.71 1560.78 1890.71 1558.17C1890.71 1555.56 1888.6 1553.45 1885.99 1553.45C1883.38 1553.45 1881.27 1555.56 1881.27 1558.17C1881.27 1560.78 1883.38 1562.89 1885.99 1562.89Z" fill="#59221D"/>
<path d="M1915.72 1562.89C1918.33 1562.89 1920.44 1560.78 1920.44 1558.17C1920.44 1555.56 1918.33 1553.45 1915.72 1553.45C1913.11 1553.45 1911 1555.56 1911 1558.17C1911 1560.78 1913.11 1562.89 1915.72 1562.89Z" fill="#59221D"/>
<path d="M1945.45 1562.89C1948.06 1562.89 1950.17 1560.78 1950.17 1558.17C1950.17 1555.56 1948.06 1553.45 1945.45 1553.45C1942.84 1553.45 1940.73 1555.56 1940.73 1558.17C1940.73 1560.78 1942.84 1562.89 1945.45 1562.89Z" fill="#59221D"/>
<path d="M1975.18 1562.89C1977.79 1562.89 1979.9 1560.78 1979.9 1558.17C1979.9 1555.56 1977.79 1553.45 1975.18 1553.45C1972.57 1553.45 1970.46 1555.56 1970.46 1558.17C1970.46 1560.78 1972.57 1562.89 1975.18 1562.89Z" fill="#59221D"/>
<path d="M2004.91 1562.89C2007.52 1562.89 2009.63 1560.78 2009.63 1558.17C2009.63 1555.56 2007.52 1553.45 2004.91 1553.45C2002.3 1553.45 2000.19 1555.56 2000.19 1558.17C2000.19 1560.78 2002.3 1562.89 2004.91 1562.89Z" fill="#59221D"/>
<path d="M2019.77 1578.38C2022.38 1578.38 2024.49 1576.27 2024.49 1573.66C2024.49 1571.05 2022.38 1568.94 2019.77 1568.94C2017.16 1568.94 2015.05 1571.05 2015.05 1573.66C2015.05 1576.27 2017.16 1578.38 2019.77 1578.38Z" fill="#59221D"/>
<path d="M2049.5 1578.38C2052.11 1578.38 2054.22 1576.27 2054.22 1573.66C2054.22 1571.05 2052.11 1568.94 2049.5 1568.94C2046.89 1568.94 2044.78 1571.05 2044.78 1573.66C2044.78 1576.27 2046.89 1578.38 2049.5 1578.38Z" fill="#59221D"/>
<path d="M2079.23 1578.38C2081.84 1578.38 2083.95 1576.27 2083.95 1573.66C2083.95 1571.05 2081.84 1568.94 2079.23 1568.94C2076.62 1568.94 2074.51 1571.05 2074.51 1573.66C2074.51 1576.27 2076.62 1578.38 2079.23 1578.38Z" fill="#59221D"/>
<path d="M1900.85 1578.38C1903.46 1578.38 1905.57 1576.27 1905.57 1573.66C1905.57 1571.05 1903.46 1568.94 1900.85 1568.94C1898.24 1568.94 1896.13 1571.05 1896.13 1573.66C1896.13 1576.27 1898.24 1578.38 1900.85 1578.38Z" fill="#59221D"/>
<path d="M1930.58 1578.38C1933.19 1578.38 1935.3 1576.27 1935.3 1573.66C1935.3 1571.05 1933.19 1568.94 1930.58 1568.94C1927.97 1568.94 1925.86 1571.05 1925.86 1573.66C1925.86 1576.27 1927.97 1578.38 1930.58 1578.38Z" fill="#59221D"/>
<path d="M1960.31 1578.38C1962.92 1578.38 1965.03 1576.27 1965.03 1573.66C1965.03 1571.05 1962.92 1568.94 1960.31 1568.94C1957.7 1568.94 1955.59 1571.05 1955.59 1573.66C1955.59 1576.27 1957.7 1578.38 1960.31 1578.38Z" fill="#59221D"/>
<path d="M1990.04 1578.38C1992.65 1578.38 1994.76 1576.27 1994.76 1573.66C1994.76 1571.05 1992.65 1568.94 1990.04 1568.94C1987.43 1568.94 1985.32 1571.05 1985.32 1573.66C1985.32 1576.27 1987.43 1578.38 1990.04 1578.38Z" fill="#59221D"/>
<path d="M2034.64 1593.87C2037.25 1593.87 2039.36 1591.76 2039.36 1589.15C2039.36 1586.54 2037.25 1584.43 2034.64 1584.43C2032.03 1584.43 2029.92 1586.54 2029.92 1589.15C2029.92 1591.76 2032.03 1593.87 2034.64 1593.87Z" fill="#59221D"/>
<path d="M2064.37 1593.87C2066.98 1593.87 2069.09 1591.76 2069.09 1589.15C2069.09 1586.54 2066.98 1584.43 2064.37 1584.43C2061.76 1584.43 2059.65 1586.54 2059.65 1589.15C2059.65 1591.76 2061.76 1593.87 2064.37 1593.87Z" fill="#59221D"/>
<path d="M2094.1 1593.87C2096.71 1593.87 2098.82 1591.76 2098.82 1589.15C2098.82 1586.54 2096.71 1584.43 2094.1 1584.43C2091.49 1584.43 2089.38 1586.54 2089.38 1589.15C2089.38 1591.76 2091.49 1593.87 2094.1 1593.87Z" fill="#59221D"/>
<path d="M1885.99 1593.87C1888.6 1593.87 1890.71 1591.76 1890.71 1589.15C1890.71 1586.54 1888.6 1584.43 1885.99 1584.43C1883.38 1584.43 1881.27 1586.54 1881.27 1589.15C1881.27 1591.76 1883.38 1593.87 1885.99 1593.87Z" fill="#59221D"/>
<path d="M1915.72 1593.87C1918.33 1593.87 1920.44 1591.76 1920.44 1589.15C1920.44 1586.54 1918.33 1584.43 1915.72 1584.43C1913.11 1584.43 1911 1586.54 1911 1589.15C1911 1591.76 1913.11 1593.87 1915.72 1593.87Z" fill="#59221D"/>
<path d="M1945.45 1593.87C1948.06 1593.87 1950.17 1591.76 1950.17 1589.15C1950.17 1586.54 1948.06 1584.43 1945.45 1584.43C1942.84 1584.43 1940.73 1586.54 1940.73 1589.15C1940.73 1591.76 1942.84 1593.87 1945.45 1593.87Z" fill="#59221D"/>
<path d="M1975.18 1593.87C1977.79 1593.87 1979.9 1591.76 1979.9 1589.15C1979.9 1586.54 1977.79 1584.43 1975.18 1584.43C1972.57 1584.43 1970.46 1586.54 1970.46 1589.15C1970.46 1591.76 1972.57 1593.87 1975.18 1593.87Z" fill="#59221D"/>
<path d="M2004.91 1593.87C2007.52 1593.87 2009.63 1591.76 2009.63 1589.15C2009.63 1586.54 2007.52 1584.43 2004.91 1584.43C2002.3 1584.43 2000.19 1586.54 2000.19 1589.15C2000.19 1591.76 2002.3 1593.87 2004.91 1593.87Z" fill="#59221D"/>
<path d="M2019.77 1609.36C2022.38 1609.36 2024.49 1607.25 2024.49 1604.64C2024.49 1602.03 2022.38 1599.92 2019.77 1599.92C2017.16 1599.92 2015.05 1602.03 2015.05 1604.64C2015.05 1607.25 2017.16 1609.36 2019.77 1609.36Z" fill="#59221D"/>
<path d="M2049.5 1609.36C2052.11 1609.36 2054.22 1607.25 2054.22 1604.64C2054.22 1602.03 2052.11 1599.92 2049.5 1599.92C2046.89 1599.92 2044.78 1602.03 2044.78 1604.64C2044.78 1607.25 2046.89 1609.36 2049.5 1609.36Z" fill="#59221D"/>
<path d="M2079.23 1609.36C2081.84 1609.36 2083.95 1607.25 2083.95 1604.64C2083.95 1602.03 2081.84 1599.92 2079.23 1599.92C2076.62 1599.92 2074.51 1602.03 2074.51 1604.64C2074.51 1607.25 2076.62 1609.36 2079.23 1609.36Z" fill="#59221D"/>
<path d="M1900.85 1609.36C1903.46 1609.36 1905.57 1607.25 1905.57 1604.64C1905.57 1602.03 1903.46 1599.92 1900.85 1599.92C1898.24 1599.92 1896.13 1602.03 1896.13 1604.64C1896.13 1607.25 1898.24 1609.36 1900.85 1609.36Z" fill="#59221D"/>
<path d="M1930.58 1609.36C1933.19 1609.36 1935.3 1607.25 1935.3 1604.64C1935.3 1602.03 1933.19 1599.92 1930.58 1599.92C1927.97 1599.92 1925.86 1602.03 1925.86 1604.64C1925.86 1607.25 1927.97 1609.36 1930.58 1609.36Z" fill="#59221D"/>
<path d="M1960.31 1609.36C1962.92 1609.36 1965.03 1607.25 1965.03 1604.64C1965.03 1602.03 1962.92 1599.92 1960.31 1599.92C1957.7 1599.92 1955.59 1602.03 1955.59 1604.64C1955.59 1607.25 1957.7 1609.36 1960.31 1609.36Z" fill="#59221D"/>
<path d="M1990.04 1609.36C1992.65 1609.36 1994.76 1607.25 1994.76 1604.64C1994.76 1602.03 1992.65 1599.92 1990.04 1599.92C1987.43 1599.92 1985.32 1602.03 1985.32 1604.64C1985.32 1607.25 1987.43 1609.36 1990.04 1609.36Z" fill="#59221D"/>
<path d="M1163.76 1262V850.17C1163.76 844.017 1164.97 837.924 1167.33 832.239C1169.68 826.554 1173.13 821.389 1177.49 817.038C1181.84 812.688 1187 809.237 1192.69 806.883C1198.37 804.529 1204.47 803.319 1210.62 803.32H1751.02C1761.9 803.318 1772.55 806.516 1781.63 812.515C1790.71 818.514 1797.82 827.049 1802.09 837.06L1976.41 1261.64L1163.76 1262Z" fill="white"/>
<path d="M1187.02 1262V865.68C1187.02 853.252 1191.96 841.333 1200.74 832.545C1209.53 823.757 1221.45 818.82 1233.88 818.82H1774.28C1785.16 818.821 1795.81 822.02 1804.89 828.021C1813.97 834.021 1821.08 842.558 1825.35 852.57L1999.67 1261.64L1187.02 1262Z" fill="#98C8DB"/>
<path d="M1515.14 972.36C1509 972.359 1502.91 973.568 1497.24 975.918C1491.56 978.269 1486.4 981.714 1482.06 986.058C1477.71 990.403 1474.27 995.56 1471.92 1001.24C1469.57 1006.91 1468.36 1013 1468.36 1019.14V1262H1426.09V1019.14C1426.09 1013 1427.3 1006.91 1429.65 1001.24C1432 995.56 1435.44 990.403 1439.79 986.058C1444.13 981.714 1449.29 978.269 1454.97 975.918C1460.64 973.568 1466.73 972.359 1472.87 972.36H1515.14Z" fill="#59221D"/>
<path d="M1734.55 1019.14V1262H1468.36V1019.14C1468.36 1013 1469.57 1006.91 1471.92 1001.24C1474.27 995.56 1477.71 990.403 1482.06 986.058C1486.4 981.714 1491.56 978.269 1497.24 975.918C1502.91 973.568 1509 972.359 1515.14 972.36H1687.77C1700.18 972.36 1712.07 977.288 1720.85 986.061C1729.62 994.834 1734.55 1006.73 1734.55 1019.14V1019.14Z" fill="#A74602"/>
<path d="M1999.86 1262H2078.5C2085.5 1262 2092.2 1259.22 2097.15 1254.28C2102.09 1249.33 2104.87 1242.62 2104.87 1235.63V1146.2C2104.87 1142.1 2103.24 1138.17 2100.34 1135.27C2097.44 1132.37 2093.5 1130.74 2089.4 1130.74H2064.34C2060.24 1130.74 2056.31 1132.37 2053.41 1135.27C2050.5 1138.17 2048.87 1142.1 2048.87 1146.2V1235.71C2048.87 1242.61 2046.15 1249.22 2041.29 1254.12C2036.43 1259.02 2029.84 1261.79 2022.94 1261.85L1999.86 1262Z" fill="white"/>
<path d="M1460.01 1262H1328.18C1321.19 1262 1314.48 1259.22 1309.53 1254.28C1304.59 1249.33 1301.81 1242.62 1301.81 1235.63V1146.2C1301.81 1142.1 1303.44 1138.17 1306.34 1135.27C1309.24 1132.37 1313.17 1130.74 1317.27 1130.74H1342.34C1346.44 1130.74 1350.37 1132.37 1353.27 1135.27C1356.17 1138.17 1357.8 1142.1 1357.8 1146.2V1235.71C1357.8 1242.61 1360.53 1249.22 1365.39 1254.12C1370.25 1259.02 1376.84 1261.79 1383.74 1261.85L1460.01 1262Z" fill="#FFC200"/>
<path d="M1988.78 1262H2067.5C2074.49 1262 2081.2 1259.22 2086.15 1254.28C2091.09 1249.33 2093.87 1242.62 2093.87 1235.63V1146.2C2093.87 1142.1 2092.24 1138.17 2089.34 1135.27C2086.44 1132.37 2082.51 1130.74 2078.41 1130.74H2053.3C2049.2 1130.74 2045.27 1132.37 2042.37 1135.27C2039.47 1138.17 2037.84 1142.1 2037.84 1146.2V1235.71C2037.84 1242.61 2035.12 1249.22 2030.26 1254.12C2025.4 1259.02 2018.81 1261.79 2011.91 1261.85L1988.78 1262Z" fill="#FFC200"/>
<path d="M773.5 1103.44V1364.64H510.82C505.878 1364.64 500.985 1363.67 496.42 1361.77C491.855 1359.88 487.708 1357.11 484.215 1353.61C480.722 1350.12 477.953 1345.97 476.064 1341.4C474.176 1336.84 473.206 1331.94 473.21 1327V1103.44H773.5Z" fill="white"/>
<path d="M773.36 1093.6H470.99C470.774 1093.6 470.558 1093.62 470.35 1093.68L405.88 1033.07H708.98L773.36 1093.6Z" fill="white"/>
<path d="M964.93 1033.07L900.5 1093.68C900.291 1093.62 900.076 1093.6 899.86 1093.6H784.6L848.98 1033.07H964.93Z" fill="white"/>
<path d="M897.6 1103.44V1326.87C897.597 1336.89 893.615 1346.5 886.531 1353.58C879.446 1360.66 869.838 1364.64 859.82 1364.64H784.43V1103.44H897.6Z" fill="white"/>
<path d="M347.68 1742.16C347.522 1723.22 351.116 1704.43 358.255 1686.89C365.394 1669.34 375.936 1653.39 389.274 1639.94C402.611 1626.49 418.48 1615.81 435.965 1608.53C453.449 1601.24 472.203 1597.49 491.145 1597.49C510.086 1597.49 528.84 1601.24 546.325 1608.53C563.809 1615.81 579.678 1626.49 593.016 1639.94C606.354 1653.39 616.896 1669.34 624.035 1686.89C631.174 1704.43 634.768 1723.22 634.61 1742.16H347.68Z" fill="#59221D"/>
<path d="M491.15 1851.69C552.768 1851.69 602.72 1801.74 602.72 1740.12C602.72 1678.5 552.768 1628.55 491.15 1628.55C429.532 1628.55 379.58 1678.5 379.58 1740.12C379.58 1801.74 429.532 1851.69 491.15 1851.69Z" fill="#F5BBBB"/>
<path d="M491.15 1832.56C542.203 1832.56 583.59 1791.17 583.59 1740.12C583.59 1689.07 542.203 1647.68 491.15 1647.68C440.097 1647.68 398.71 1689.07 398.71 1740.12C398.71 1791.17 440.097 1832.56 491.15 1832.56Z" stroke="white" stroke-width="5" stroke-miterlimit="10"/>
<path d="M491.149 1757.38C501.367 1757.38 509.649 1749.1 509.649 1738.88C509.649 1728.66 501.367 1720.38 491.149 1720.38C480.932 1720.38 472.649 1728.66 472.649 1738.88C472.649 1749.1 480.932 1757.38 491.149 1757.38Z" stroke="#592D29" stroke-width="5" stroke-miterlimit="10"/>
<path d="M1310.5 1742.16C1310.34 1723.22 1313.94 1704.43 1321.07 1686.89C1328.21 1669.34 1338.76 1653.39 1352.09 1639.94C1365.43 1626.49 1381.3 1615.81 1398.78 1608.53C1416.27 1601.24 1435.02 1597.49 1453.96 1597.49C1472.91 1597.49 1491.66 1601.24 1509.14 1608.53C1526.63 1615.81 1542.5 1626.49 1555.84 1639.94C1569.17 1653.39 1579.72 1669.34 1586.85 1686.89C1593.99 1704.43 1597.59 1723.22 1597.43 1742.16H1310.5Z" fill="#59221D"/>
<path d="M1455.6 1851.69C1517.22 1851.69 1567.17 1801.74 1567.17 1740.12C1567.17 1678.5 1517.22 1628.55 1455.6 1628.55C1393.98 1628.55 1344.03 1678.5 1344.03 1740.12C1344.03 1801.74 1393.98 1851.69 1455.6 1851.69Z" fill="#F5BBBB"/>
<path d="M1455.6 1832.56C1506.65 1832.56 1548.04 1791.17 1548.04 1740.12C1548.04 1689.07 1506.65 1647.68 1455.6 1647.68C1404.55 1647.68 1363.16 1689.07 1363.16 1740.12C1363.16 1791.17 1404.55 1832.56 1455.6 1832.56Z" stroke="white" stroke-width="5" stroke-miterlimit="10"/>
<path d="M1455.39 1759.05C1465.61 1759.05 1473.89 1750.77 1473.89 1740.55C1473.89 1730.33 1465.61 1722.05 1455.39 1722.05C1445.17 1722.05 1436.89 1730.33 1436.89 1740.55C1436.89 1750.77 1445.17 1759.05 1455.39 1759.05Z" stroke="#592D29" stroke-width="5" stroke-miterlimit="10"/>
<path d="M2187.29 1534.58C2211.76 1534.58 2231.59 1514.75 2231.59 1490.28C2231.59 1465.81 2211.76 1445.98 2187.29 1445.98C2162.82 1445.98 2142.99 1465.81 2142.99 1490.28C2142.99 1514.75 2162.82 1534.58 2187.29 1534.58Z" fill="#FFC200"/>
<path d="M2188.33 1569.85C2194.44 1569.85 2199.4 1564.89 2199.4 1558.78C2199.4 1552.67 2194.44 1547.71 2188.33 1547.71C2182.22 1547.71 2177.26 1552.67 2177.26 1558.78C2177.26 1564.89 2182.22 1569.85 2188.33 1569.85Z" stroke="#592D29" stroke-width="5" stroke-miterlimit="10"/>
<path d="M1762.23 1534.58C1786.7 1534.58 1806.53 1514.75 1806.53 1490.28C1806.53 1465.81 1786.7 1445.98 1762.23 1445.98C1737.76 1445.98 1717.93 1465.81 1717.93 1490.28C1717.93 1514.75 1737.76 1534.58 1762.23 1534.58Z" fill="#FFC200"/>
<path d="M1760.06 1569.85C1766.17 1569.85 1771.13 1564.89 1771.13 1558.78C1771.13 1552.67 1766.17 1547.71 1760.06 1547.71C1753.95 1547.71 1748.99 1552.67 1748.99 1558.78C1748.99 1564.89 1753.95 1569.85 1760.06 1569.85Z" stroke="#592D29" stroke-width="5" stroke-miterlimit="10"/>
<path d="M1929.86 1262H1493.56L1508.4 1191.09C1514.01 1164.32 1528.66 1140.29 1549.89 1123.04C1571.12 1105.79 1597.65 1096.38 1625 1096.38H1798.43C1825.78 1096.38 1852.31 1105.79 1873.54 1123.04C1894.77 1140.29 1909.42 1164.32 1915.02 1191.09L1929.86 1262Z" fill="#F5BBBB"/>
<path d="M1700.5 1130.58V1262.77L1593.43 1262.02L1614.94 1160.02C1616.53 1152.52 1616.6 1144.78 1615.13 1137.26C1608.92 1105.26 1570.36 1103.93 1549.2 1123.67L1550.43 1120.8C1553.87 1112.77 1559.58 1105.92 1566.87 1101.11C1574.16 1096.3 1582.7 1093.73 1591.43 1093.73H1663.61C1673.39 1093.73 1682.77 1097.61 1689.69 1104.52C1696.6 1111.43 1700.49 1120.8 1700.5 1130.58Z" fill="#59221D"/>
<path d="M1614.63 1163.37H1698.24" stroke="white" stroke-width="5" stroke-linecap="round" stroke-linejoin="round"/>
<path d="M1603.41 1217.23H1698.24" stroke="white" stroke-width="5" stroke-linecap="round" stroke-linejoin="round"/>
<path d="M1847.4 1127.25V1259.13H1783.5V1130.58C1783.5 1113.81 1772.5 1098.92 1756.95 1096.29L1757.55 1092.21H1812.34C1821.64 1092.21 1830.55 1095.9 1837.13 1102.47C1843.7 1109.04 1847.4 1117.95 1847.4 1127.25V1127.25Z" fill="#59221D"/>
<path d="M1785.18 1163.37H1845.23" stroke="white" stroke-width="5" stroke-linecap="round" stroke-linejoin="round"/>
<path d="M1669.41 1095.9L1701.17 1050.9H1756.55V1095.9C1756.55 1095.9 1739.25 1113.91 1669.41 1095.9Z" fill="white" stroke="#59221D" stroke-width="3" stroke-linejoin="round"/>
<path d="M1733.6 1103.19C1750.43 1101.19 1756.6 1095.9 1756.6 1095.9V1050.9H1701.22V1056.63C1701.22 1063.86 1703.94 1070.84 1708.84 1076.16L1733.6 1103.19Z" fill="#59221D"/>
<path d="M1761.56 1003.75V1009.54L1704.21 1023.4V1011.62C1704.21 1005.85 1706.5 1000.31 1710.59 996.226C1714.67 992.143 1720.21 989.85 1725.98 989.85H1747.67C1749.5 989.85 1751.3 990.209 1752.99 990.908C1754.67 991.607 1756.21 992.631 1757.5 993.921C1758.79 995.212 1759.81 996.745 1760.51 998.431C1761.2 1000.12 1761.56 1001.92 1761.56 1003.75V1003.75Z" fill="#FFC200"/>
<path d="M1705.33 1023.4L1791.98 1001.86" stroke="#59221D" stroke-width="3" stroke-linecap="round" stroke-linejoin="round"/>
<path d="M1761.56 1009.54L1766.15 1051.6C1766.42 1054.07 1766.17 1056.57 1765.41 1058.93C1764.64 1061.3 1763.39 1063.48 1761.74 1065.33C1760.08 1067.18 1758.05 1068.66 1755.78 1069.67C1753.51 1070.68 1751.05 1071.21 1748.57 1071.21H1726.91C1723.76 1071.2 1720.66 1070.37 1717.93 1068.79C1715.2 1067.21 1712.94 1064.94 1711.36 1062.21L1705.36 1051.8H1695.5C1691.88 1051.7 1688.44 1050.2 1685.92 1047.6C1683.4 1045.01 1681.98 1041.53 1681.98 1037.91C1681.98 1034.3 1683.4 1030.82 1685.92 1028.23C1688.44 1025.63 1691.88 1024.13 1695.5 1024.03H1697.86C1699.46 1024.03 1701.02 1024.51 1702.34 1025.4C1703.67 1026.29 1704.7 1027.55 1705.31 1029.03V1023.4L1761.56 1009.54Z" fill="white" stroke="#59221D" stroke-width="3" stroke-linejoin="round"/>
<path d="M1703.72 1023.4L1727.32 1018.83L1717.18 1021.27C1715.62 1021.65 1714.24 1022.53 1713.24 1023.79C1712.25 1025.05 1711.71 1026.61 1711.71 1028.21V1032.4C1711.71 1036.18 1707.49 1039.25 1703.71 1039.25L1703.72 1023.4Z" fill="#59221D"/>
<path d="M1693.2 1030.56C1694.17 1030.56 1695.13 1030.75 1696.03 1031.12C1696.93 1031.49 1697.74 1032.03 1698.43 1032.72C1699.12 1033.41 1699.66 1034.22 1700.04 1035.12C1700.41 1036.02 1700.6 1036.98 1700.6 1037.95" stroke="#59221D" stroke-width="3" stroke-linecap="round" stroke-linejoin="round"/>
<path d="M1742.73 1056.07C1740.85 1056.64 1738.83 1056.44 1737.1 1055.52C1735.37 1054.6 1734.08 1053.02 1733.51 1051.15" stroke="#59221D" stroke-width="3" stroke-linecap="round" stroke-linejoin="round"/>
<path d="M1761.56 1020.61H1748.77C1748.11 1020.61 1747.46 1020.76 1746.85 1021.03C1746.25 1021.31 1745.72 1021.72 1745.29 1022.22C1744.86 1022.72 1744.55 1023.31 1744.37 1023.95C1744.19 1024.59 1744.15 1025.26 1744.25 1025.91C1745.51 1033.91 1747.06 1048.19 1742.25 1048.19" stroke="#59221D" stroke-width="3" stroke-linecap="round" stroke-linejoin="round"/>
<path d="M1732.02 1036.11C1733.57 1036.11 1734.83 1034.1 1734.83 1031.62C1734.83 1029.14 1733.57 1027.13 1732.02 1027.13C1730.47 1027.13 1729.21 1029.14 1729.21 1031.62C1729.21 1034.1 1730.47 1036.11 1732.02 1036.11Z" fill="#59221D"/>
<path d="M1754.46 1035.55C1755.81 1035.55 1756.91 1033.79 1756.91 1031.62C1756.91 1029.45 1755.81 1027.69 1754.46 1027.69C1753.11 1027.69 1752.01 1029.45 1752.01 1031.62C1752.01 1033.79 1753.11 1035.55 1754.46 1035.55Z" fill="#59221D"/>
<path d="M2016.36 1262L1981.36 1231.23C1960.08 1212.5 1932.71 1202.17 1904.36 1202.17H1799.06C1779.63 1202.17 1760.5 1207.03 1743.43 1216.31L1698.1 1241C1672.62 1254.83 1644.09 1262.08 1615.1 1262.08L2016.36 1262Z" fill="#A74602"/>
<path d="M1615.12 1262C1644.11 1262 1672.64 1254.75 1698.12 1240.92L1743.45 1216.31C1760.52 1207.03 1779.65 1202.17 1799.08 1202.17H1904.4C1932.75 1202.17 1960.12 1212.5 1981.4 1231.23L2011.54 1256.15" stroke="white" stroke-width="5" stroke-linecap="round" stroke-linejoin="round"/>
<path d="M1471.6 1261.93L1472.03 1521.82C1468.73 1521.66 1465.4 1521.59 1462.03 1521.59C1383.89 1521.59 1315.57 1562.28 1278.57 1622.91C1276.29 1626.64 1273.09 1629.72 1269.28 1631.86C1265.47 1634 1261.17 1635.12 1256.8 1635.12H1161.52V848.12C1161.52 836.302 1166.21 824.968 1174.57 816.611C1182.93 808.254 1194.26 803.56 1206.08 803.56H1832.79" stroke="#592D29" stroke-width="5" stroke-miterlimit="10"/>
<path d="M626.28 1762.56C626.28 1789.79 614.28 1814.48 594.67 1832.56" stroke="#592D29" stroke-width="5" stroke-miterlimit="10" stroke-linecap="round"/>
<path d="M1592.5 1760.56C1592.5 1787.78 1580.5 1812.47 1560.9 1830.56" stroke="#592D29" stroke-width="5" stroke-miterlimit="10" stroke-linecap="round"/>
<path d="M1276.32 805.09C1254.03 752.78 1204.66 721.83 1147.81 721.83" stroke="#592D29" stroke-width="5" stroke-miterlimit="10"/>
<path d="M1690.9 1689.51V1467.51C1690.9 1455.02 1688.01 1442.71 1682.44 1431.53C1676.88 1420.36 1668.79 1410.62 1658.83 1403.1L1471.61 1261.69" stroke="#592D29" stroke-width="5" stroke-miterlimit="10"/>
<path d="M1210.5 1316.69C1210.5 1311.85 1212.42 1307.22 1215.84 1303.8C1219.26 1300.38 1223.89 1298.45 1228.73 1298.45H1288.88C1293.72 1298.45 1298.36 1300.37 1301.78 1303.79C1305.2 1307.21 1307.12 1311.85 1307.12 1316.69" stroke="#592D29" stroke-width="5" stroke-miterlimit="10" stroke-linecap="round"/>
<path d="M2180.82 1377.52L2213.27 1401.87C2224.11 1410.01 2218.36 1427.27 2204.79 1427.27H1731.79C1705.46 1427.26 1679.84 1418.71 1658.79 1402.9L1625.01 1377.52" stroke="#592D29" stroke-width="5" stroke-miterlimit="10"/>
<path d="M508.14 863.33H92.7598" stroke="#592D29" stroke-width="5" stroke-miterlimit="10" stroke-linecap="round"/>
<path d="M407.15 909.33H3" stroke="#592D29" stroke-width="5" stroke-miterlimit="10" stroke-linecap="round"/>
<path d="M414.39 679.57H1556.95C1566.94 679.57 1576.52 683.538 1583.58 690.6C1590.64 697.663 1594.61 707.242 1594.61 717.23V721.83H376.73V717.23C376.73 707.242 380.698 697.663 387.761 690.6C394.823 683.538 404.402 679.57 414.39 679.57Z" stroke="#592D29" stroke-width="5" stroke-miterlimit="10"/>
<path d="M1834.82 1446.26H2125.58" stroke="#592D29" stroke-width="5" stroke-miterlimit="10" stroke-linecap="round"/>
<path d="M1471.09 1262H1339.25C1332.26 1262 1325.55 1259.22 1320.61 1254.27C1315.67 1249.33 1312.89 1242.62 1312.89 1235.63V1146.2C1312.89 1142.1 1314.52 1138.17 1317.42 1135.27C1320.32 1132.37 1324.25 1130.74 1328.35 1130.74H1353.42C1357.52 1130.74 1361.45 1132.37 1364.35 1135.27C1367.25 1138.17 1368.88 1142.1 1368.88 1146.2V1235.71C1368.88 1242.61 1371.61 1249.22 1376.46 1254.12C1381.32 1259.02 1387.91 1261.79 1394.81 1261.85L1471.09 1262Z" stroke="#592D29" stroke-width="5" stroke-miterlimit="10"/>
<path d="M1999.86 1262H2078.5C2085.49 1262 2092.2 1259.22 2097.15 1254.28C2102.09 1249.33 2104.87 1242.62 2104.87 1235.63V1146.2C2104.87 1142.1 2103.24 1138.17 2100.33 1135.27C2097.43 1132.37 2093.5 1130.74 2089.4 1130.74H2064.34C2060.24 1130.74 2056.3 1132.37 2053.4 1135.27C2050.5 1138.17 2048.87 1142.1 2048.87 1146.2V1235.71C2048.87 1242.61 2046.14 1249.22 2041.29 1254.12C2036.43 1259.02 2029.84 1261.79 2022.94 1261.85L1999.86 1262Z" stroke="#592D29" stroke-width="5" stroke-miterlimit="10"/>
<path d="M1471.09 1262.03H2027.91" stroke="#592D29" stroke-width="5" stroke-miterlimit="10"/>
<path d="M1700.36 926.11L1764.26 864.77" stroke="white" stroke-width="5" stroke-linecap="round" stroke-linejoin="round"/>
<path d="M1669.38 955.83L1684.68 941.15" stroke="white" stroke-width="5" stroke-linecap="round" stroke-linejoin="round"/>
<path d="M1479.67 1137.9L1634.98 988.85" stroke="white" stroke-width="5" stroke-linecap="round" stroke-linejoin="round"/>
<path d="M1659.42 909.03L1684.68 884.78" stroke="white" stroke-width="5" stroke-linecap="round" stroke-linejoin="round"/>
<path d="M1494.37 1067.43L1639.5 928.15" stroke="white" stroke-width="5" stroke-linecap="round" stroke-linejoin="round"/>
<path d="M1474.26 1260.51L1468.95 1262.78L1279.76 818.82H1286.04L1474.26 1260.51Z" fill="white"/>
</svg>
